<?xml version="1.0" standalone="no"?>
<!DOCTYPE svg PUBLIC "-//W3C//DTD SVG 1.1//EN" "http://www.w3.org/Graphics/SVG/1.1/DTD/svg11.dtd" >
<svg>
<metadata>
Created by FontForge 20110222 at Thu Nov 27 09:46:30 2014
 By www-data
Copyright (c) 2014 by dcoxy Medina Gregory. All rights reserved. 
You need my agreement for every diffusions, reproduction and commercial use. 
Thank you to contact me before: dcoxymg@gmail.com
</metadata>
<defs>
<font id="SkaterGirlsRock" horiz-adv-x="419" >
  <font-face 
    font-family="Skater Girls Rock"
    font-weight="400"
    font-stretch="normal"
    units-per-em="1000"
    panose-1="2 0 0 0 0 0 0 0 0 0"
    ascent="800"
    descent="-200"
    x-height="501"
    cap-height="696"
    bbox="-262 -274.451 784 900"
    underline-thickness="50"
    underline-position="-50"
    unicode-range="U+0020-2122"
  />
    <missing-glyph />
    <glyph glyph-name="space" unicode=" " horiz-adv-x="183" 
 />
    <glyph glyph-name="space" unicode="&#xa0;" horiz-adv-x="183" 
 />
    <glyph glyph-name="b" unicode="b" horiz-adv-x="495" 
d="M166 387q22 32 53.5 47t65 13.5t66.5 -19t58 -51t38 -82t7 -111.5q-5 -60 -26.5 -100t-51.5 -61.5t-64.5 -26t-67.5 5.5t-59.5 33t-40.5 56q-1 -8 -2 -19.5t-2 -24.5t-2 -25.5t-2 -20.5h-128q0 23 1 75.5t2 119.5t3 140t3 137.5t2 113t1 65.5h171q-5 -56 -8.5 -99
t-6.5 -75t-5 -54t-5 -37zM330 141q8 34 3.5 58.5t-17.5 38.5t-30.5 18t-34 -3t-29 -25t-15.5 -47q-5 -40 11 -62t38.5 -27t44 7.5t29.5 41.5z" />
    <glyph glyph-name="c" unicode="c" horiz-adv-x="434" 
d="M258 191q29 2 65.5 1t70.5 -1q-2 -24 -13 -57t-34 -62.5t-60 -50.5t-90 -21q-57 0 -97 23t-64 60.5t-32.5 85t-2.5 96.5t26.5 94.5t53.5 79.5t79 51.5t104 10.5q39 -5 63.5 -26t38 -48t17.5 -55t3 -47q-11 -3 -29.5 -6.5t-38.5 -6.5t-39 -6t-30 -5q-1 32 -18 45
t-38.5 6.5t-40 -34t-22.5 -76.5q-4 -47 11 -77t37 -38.5t45 6.5t35 58z" />
    <glyph glyph-name="d" unicode="d" horiz-adv-x="500" 
d="M473 652q0 -17 -2 -65t-5 -112.5t-7 -137.5t-8 -140t-7.5 -119.5t-5.5 -76.5h-135q-1 17 -1 40.5t2 46.5q-12 -38 -39 -60.5t-60.5 -30t-70 0t-66.5 29.5t-49 58.5t-19 87.5q0 68 17.5 120t44.5 87t61.5 52t69 16t65.5 -22t53 -62q0 32 -0.5 75t-0.5 85v77v51h163z
M129 151q6 -33 27.5 -48.5t45.5 -11.5t43 28t19 69q0 33 -11.5 52t-28.5 26.5t-36 3t-34 -19.5t-23 -40t-2 -59z" />
    <glyph glyph-name="e" unicode="e" 
d="M342 213l13.5 -27l14.5 -29t12.5 -26t8.5 -19q-11 -22 -31 -44t-47.5 -38.5t-61.5 -25t-73 -3.5q-48 6 -87.5 35.5t-63 77t-28 110.5t17.5 136q12 37 33 65t48 46t57.5 25.5t59.5 4.5q73 -7 109 -54.5t36 -120.5q0 -36 -13 -68t-35.5 -56t-54 -38t-67.5 -14
q-15 0 -29.5 2.5t-28.5 7.5q22 -32 54.5 -40.5t64 0.5t57 33.5t34.5 59.5zM194 365q-25 -2 -44 -18.5t-17 -48.5q2 -30 21.5 -43t45.5 -12q29 1 49 20t16 54q-3 29 -24.5 39.5t-46.5 8.5z" />
    <glyph glyph-name="f" unicode="f" horiz-adv-x="400" 
d="M345 298q-8 1 -26.5 2.5t-39 4t-39.5 4.5t-29 4q9 32 18 74t12 78.5t-3 61.5t-27 22q-17 -2 -27 -27.5t-14.5 -66t-4.5 -91t3 -102.5q48 4 88.5 7t56.5 3q-1 -13 -2.5 -30l-3 -34t-3.5 -32.5t-4 -25.5q-11 -1 -45.5 -1t-78.5 -1q5 -56 8.5 -96.5t4.5 -51.5h-137
q-4 39 -7 75.5t-6 71.5q-12 -1 -21.5 -1t-16.5 -1v23v30.5v29.5v20q5 0 31 3q-7 101 -7 175t8 118q12 64 43 107t70 64t81.5 20t78 -23.5t58 -67t22.5 -110.5q0 -37 -4 -71.5t-10 -65.5t-13 -56t-14 -43z" />
    <glyph glyph-name="g" unicode="g" horiz-adv-x="467" 
d="M298 502q12 0 31.5 -0.5t41 -0.5t40.5 0.5t29 0.5q-1 -15 -3.5 -58.5t-6 -98.5t-7.5 -112.5t-8 -99.5q-8 -98 -19.5 -174t-35.5 -128t-65.5 -78.5t-110.5 -26.5q-35 0 -67 13.5t-56.5 40.5t-40 68t-18.5 95q9 1 25.5 2t35 2.5t37.5 2.5t33 2q-2 -12 1 -29t11 -32
t22 -25.5t34 -10.5q19 0 31.5 11.5t21 31.5t13 48t7.5 60q-28 -8 -57 -7q-62 1 -104 22.5t-67.5 56t-36.5 78.5t-10 89q1 59 17 107.5t45 83t69.5 52t91.5 13.5q42 -4 76 -23v24zM123 226q-2 -38 7.5 -64.5t25.5 -41.5t35.5 -19.5t38 2.5t33 24t19.5 44q2 28 3 56t3 57
q-5 52 -30 75t-54 16.5t-53 -44t-28 -105.5z" />
    <glyph glyph-name="h" unicode="h" horiz-adv-x="438" 
d="M401 297q9 -38 8.5 -85t-6 -93t-14 -87.5t-15.5 -69.5q-9 0 -28 -0.5t-40.5 -0.5t-42 0.5t-33.5 0.5q5 23 11.5 53.5t11 63.5t6 65.5t-2 58t-13.5 42t-28 18.5q-18 1 -30.5 -14.5t-21 -40t-13 -55.5t-6.5 -60.5t-2.5 -54t-0.5 -37.5h-137q1 27 0.5 82.5t-1 124t-1.5 142
t-2 137t-1.5 108.5t0.5 56h182q-2 -17 -7.5 -58t-11 -88.5t-11 -93t-7.5 -71.5q19 44 56.5 65.5t77.5 17.5t74.5 -35t48.5 -91z" />
    <glyph glyph-name="i" unicode="i" horiz-adv-x="191" 
d="M154 447q-11 0 -32 0.5t-44.5 0.5h-43.5h-27q-1 20 -3 34t-4 31q7 0 29.5 -0.5t49 -0.5h50.5h35q-2 -14 -4 -31.5t-6 -33.5zM6 418h32h45h44h30q-1 -8 -2.5 -38.5t-4 -72.5t-5.5 -90t-5.5 -92t-4.5 -78t-3 -47h-113q0 16 -1 50t-2.5 76.5t-3 89t-3 88t-2.5 72t-1 42.5z
" />
    <glyph glyph-name="j" unicode="j" horiz-adv-x="205" 
d="M19 100q2 30 2.5 75t0.5 91.5v89t1 69.5h145q-1 -10 -1.5 -46.5t-2 -89t-5 -114.5t-9 -122.5t-14.5 -113t-21 -85.5q-26 -69 -72.5 -100.5t-121.5 -27.5q-35 2 -67 16t-57 40.5t-40.5 67t-18.5 94.5q9 1 25.5 2t35.5 2l38 2t33 2q-2 -12 0.5 -28.5t11 -31.5t22 -25.5
t34.5 -10.5q28 -1 43 23t22.5 60.5t10 79.5t5.5 81zM168 447q-11 0 -32 0.5t-44.5 0.5h-43.5h-27q-1 20 -3 33.5t-4 31.5q7 0 29.5 -0.5t49 -0.5h50.5h35q0 -14 -3.5 -32.5t-6.5 -32.5z" />
    <glyph glyph-name="k" unicode="k" horiz-adv-x="414" 
d="M215 208q19 -9 39.5 -16.5t40 -13.5t37 -10.5t30.5 -7.5q1 -10 2 -32t2.5 -47t3 -47.5t2.5 -33.5q-32 1 -64 10t-61 23.5t-54.5 32.5t-44.5 37q-2 -40 -3 -67.5t-1 -35.5h-137q1 27 0.5 82.5t-1.5 124t-2.5 142t-2 137t-1 108.5t0.5 57h181q-1 -9 -3 -39t-5 -73.5
t-6.5 -97t-6.5 -108.5q23 19 53 40.5t59 42t54 37t39 27.5q3 -23 4.5 -54t2 -62t1.5 -58.5t2 -42.5q-29 -11 -74 -26z" />
    <glyph glyph-name="l" unicode="l" horiz-adv-x="354" 
d="M147 150q19 1 44.5 3t49.5 3.5t44 3t29 2.5q0 -15 -1 -37.5t-2 -46t-2 -44.5t-2 -34h-307v651h179q-1 -8 -3 -35.5t-5 -68t-6 -90.5t-6 -103t-6.5 -105.5t-5.5 -98.5z" />
    <glyph glyph-name="m" unicode="m" horiz-adv-x="681" 
d="M633 359q10 -44 10.5 -94t-5 -98.5t-14 -92t-16.5 -74.5h-148q6 26 14 59.5t14 69t10 69.5t2 61.5t-10 46.5t-26 23q-29 8 -49.5 -17t-25.5 -76q-2 -67 -10.5 -130t-19.5 -106h-153q6 26 13 59t12 67.5t7 67.5t-1 60t-12 45t-26 22q-19 5 -33 -9t-22 -45q-3 -46 -6.5 -91
t-6 -82t-4.5 -62.5t-2 -31.5h-125v502h161q-1 -9 -3 -43q24 28 56 38.5t63 2t57.5 -36t40.5 -75.5q30 61 68.5 89t76 24t68.5 -40t45 -102z" />
    <glyph glyph-name="n" unicode="n" horiz-adv-x="437" 
d="M389 369q8 -42 9 -93t-3 -102t-11.5 -97t-15.5 -77h-154q5 23 12 55.5t12.5 68t8.5 70.5t1 62.5t-11.5 44.5t-27.5 17q-22 -1 -40.5 -28.5t-27.5 -61.5q-3 -41 -5.5 -79.5t-5 -69.5t-4 -52t-1.5 -27h-125v502h161q-2 -13 -5 -69q29 43 65 59.5t69.5 7.5t60.5 -42t38 -89z
" />
    <glyph glyph-name="o" unicode="o" 
d="M191 506q53 -1 89.5 -21t59.5 -54.5t33 -80t10 -97.5q0 -53 -13.5 -99.5t-38.5 -81t-60.5 -54.5t-79.5 -18q-49 1 -85 21.5t-59.5 54t-35 79t-11.5 98.5q0 52 12 98.5t36 81t60 54.5t83 19zM258 199q8 44 -1.5 73t-44.5 40q-32 11 -53.5 -9.5t-30.5 -64.5q-8 -43 2 -74.5
t43 -43.5q29 -10 52.5 13t32.5 66z" />
    <glyph glyph-name="p" unicode="p" horiz-adv-x="467" 
d="M429 247q1 -45 -9.5 -89t-36 -78.5t-68 -56t-104.5 -22.5q-40 -1 -74 13q-3 -78 -6 -145t-6 -109h-131q2 42 3.5 97t3 118t2 131t0.5 136.5t-1 134.5t-3 125h28.5h44h44.5h30q0 -5 0.5 -14.5t0.5 -23.5q25 10 61 13q102 8 160.5 -52t60.5 -178zM142 172q5 -27 20.5 -44
t35 -23t40.5 -2t37.5 19.5t25.5 41.5t5 64q-5 47 -27.5 72t-49 30t-51.5 -9t-34 -45q-1 -25 -1.5 -51t-0.5 -53z" />
    <glyph glyph-name="q" unicode="q" horiz-adv-x="470" 
d="M432 503q1 -9 0.5 -38.5t-1 -73t-1.5 -98.5t-2.5 -115t-3.5 -120.5t-4 -116t-4.5 -102.5t-5.5 -79h-29.5h-40h-37.5h-23q2 49 3.5 113.5t3.5 138.5q-31 -11 -69 -11q-62 1 -104 23t-67.5 56.5t-36.5 78t-10 88.5q2 119 61 179t160 52q36 -3 65 -15q0 11 -0.5 20.5
t-0.5 19.5h28.5h44h44.5h30zM124 228q-4 -38 5.5 -64.5t26 -41.5t38 -19t41 3t34.5 24.5t20 45.5v100q-5 27 -29.5 41.5t-53 11t-53 -27.5t-29.5 -73z" />
    <glyph glyph-name="r" unicode="r" horiz-adv-x="456" 
d="M426 319q-29 -17 -55 -34q-23 -14 -48 -29.5t-43 -26.5q4 27 1.5 50t-9 40t-16.5 27t-21 11q-15 1 -29 -9.5t-25.5 -28t-20.5 -40.5t-13 -47q-3 -42 -6.5 -82t-5.5 -72t-4 -53t-2 -25h-129q1 16 1.5 58t1 95t1 111.5t0 109t-0.5 86t-1 42.5h166q-1 -8 -3 -32.5t-4 -59.5
q17 36 42 58t53.5 30t57.5 1t52.5 -29t40 -60t19.5 -91z" />
    <glyph glyph-name="s" unicode="s" horiz-adv-x="418" 
d="M270 255q63 -11 94 -43.5t23 -96.5q-5 -37 -30 -62t-61.5 -38.5t-80.5 -14.5t-87 11.5t-80.5 37.5t-61.5 65q8 25 22 59t27 59q31 -66 73.5 -92.5t83.5 -30.5q24 0 37 6t14.5 14.5t-9 16.5t-35.5 11q-18 2 -39 9t-42 19t-39.5 30t-30.5 43q-17 35 -16.5 78.5t19 81
t57 62.5t98.5 22q33 -2 64 -19t56.5 -41t42.5 -51t23 -47q-8 -6 -22.5 -15.5t-31 -21t-33 -22.5t-28.5 -20q-10 32 -26.5 52.5t-33 30t-31 8t-20.5 -12.5q-8 -15 -3.5 -28.5t18.5 -25t37 -20.5t52 -14z" />
    <glyph glyph-name="u" unicode="u" horiz-adv-x="453" 
d="M414 503q0 -9 -2.5 -47t-5.5 -91.5t-6 -114t-6 -113t-5.5 -90.5t-2.5 -46h-120v87q-21 -47 -57.5 -69.5t-75 -17t-72 39.5t-48.5 100q-9 43 -10 93t3.5 99t12 93.5t14.5 76.5h143q-11 -41 -20 -85t-14 -86.5t-5.5 -80t5 -66.5t18.5 -46t34 -17q14 0 26 11t21 29.5t15 42
t9 47.5q0 44 -0.5 86t-1 76.5t-0.5 58.5v30h151z" />
    <glyph glyph-name="v" unicode="v" horiz-adv-x="415" 
d="M392 502q-1 -7 -7.5 -43.5t-16.5 -88t-21.5 -111t-22 -113t-18.5 -94t-11 -52.5h-201q-4 13 -12 46.5t-17.5 77.5t-19.5 93.5t-19 95t-15.5 81.5t-9.5 54h154q3 -17 7.5 -57.5t10 -87.5t10.5 -92.5t9 -73.5q4 25 9 59.5t10 72.5t10 76.5t9 70.5t7 55t5 31h150z" />
    <glyph glyph-name="w" unicode="w" horiz-adv-x="500" 
d="M471 502q-1 -7 -5 -43.5t-9.5 -88t-12 -111t-12.5 -113t-10.5 -94t-6.5 -52.5h-144q-8 18 -15.5 50.5t-15.5 61.5q-7 -28 -15.5 -60t-16.5 -52h-151q-2 9 -6 38.5t-9.5 71t-11 90t-11 95.5t-10.5 87.5t-8 65.5h169q1 -19 2.5 -56t3.5 -78.5t4 -82t4 -66.5q1 11 5 33.5
t8.5 48t8.5 49.5t6 39h61q1 -14 4 -39t5.5 -51.5t5 -48.5t4.5 -31q1 18 2 48t3 64.5t3.5 71t3 68t2.5 54.5t1 31h164z" />
    <glyph glyph-name="x" unicode="x" horiz-adv-x="528" 
d="M491 352q-18 -17 -48 -45.5t-66 -63.5q40 -46 71 -82t43 -50q-8 -8 -24.5 -24t-34.5 -33.5t-33.5 -32.5t-22.5 -21q-16 16 -48.5 49.5t-72.5 75.5q-24 -24 -46 -45t-39 -37.5t-28.5 -28l-14.5 -14.5q-7 6 -22 18.5t-32.5 26.5t-33.5 27.5t-25 21.5q7 9 20.5 23.5t30.5 34
t37 42.5t42 48q-45 48 -80 85t-47 50q13 12 32 29t39 34.5t38.5 33.5t30.5 27q15 -19 43 -52t62 -73q38 45 68 78.5t41 46.5q10 -13 28 -34.5t36 -44t33.5 -42t22.5 -28.5z" />
    <glyph glyph-name="y" unicode="y" horiz-adv-x="437" 
d="M274 502q12 0 31.5 -0.5t40.5 -0.5t40 0.5t29 1.5q-1 -15 -3.5 -58.5t-6 -99t-7.5 -112.5t-7 -99q-8 -99 -19.5 -175t-35.5 -127.5t-65.5 -78.5t-110.5 -27q-35 0 -67 13.5t-57 41t-40.5 68.5t-18.5 95q9 1 25.5 2t35.5 2l38 2t33 2q-2 -12 0.5 -28.5t10.5 -31.5
t22 -25.5t34 -10.5q23 0 37 17t22 45.5t11.5 67t5.5 81.5q-23 -39 -58.5 -56t-71.5 -9t-67 41.5t-45 96.5q-9 43 -10 93t3.5 99t12 93t14.5 76h143q-11 -41 -20 -85t-14 -86t-5.5 -79.5t5 -66.5t18.5 -46t34 -17q13 -1 24.5 9t20.5 27t15.5 39t9.5 45l4 78t3.5 73.5t3 63
t2.5 46.5z" />
    <glyph glyph-name="z" unicode="z" horiz-adv-x="417" 
d="M387 502q0 -9 -0.5 -25t-1.5 -34t-2 -35.5t-1 -29.5q-17 -23 -37.5 -52.5t-44 -61t-48 -63t-48.5 -59.5q50 12 96.5 22t77.5 14v-31t-0.5 -54.5t-1 -56t-0.5 -36.5h-371q-1 14 -1.5 43.5t-0.5 52.5q11 10 35 39.5t54 68t62.5 81t59.5 77.5q-33 -3 -66 -6.5t-62 -6.5
t-51.5 -5t-34.5 -3v161h387v0z" />
    <glyph glyph-name="C" unicode="C" horiz-adv-x="557" 
d="M340 271q18 1 41.5 1h48.5t50 -0.5t46 -0.5q-2 -23 -10 -52t-23 -59.5t-37.5 -59.5t-51.5 -51.5t-66 -36t-82 -12.5q-87 1 -142 34t-82.5 85.5t-30.5 118t13 133t49.5 131t78.5 110.5t99.5 72t112.5 16q57 -9 91 -37.5t52 -64.5t22.5 -74t3.5 -65q-18 0 -40 -1t-45 -2
t-45.5 -2t-41.5 -1q-2 48 -21 63t-44.5 0t-52.5 -59.5t-44 -115.5q-13 -53 -9 -92.5t17.5 -63t33.5 -30.5t41 3t39.5 38t28.5 75z" />
    <glyph glyph-name="exclam" unicode="!" horiz-adv-x="237" 
d="M33 158q1 17 1 54.5v85t-0.5 100.5t-1.5 103.5t-1.5 92.5t-1.5 68h152q-1 -14 -2.5 -50.5t-3.5 -85t-4 -104t-4 -107t-4.5 -93.5t-3.5 -64h-126zM159 125v-25t1 -33.5t1.5 -35t0.5 -30.5q-8 0 -26 -0.5t-39.5 -0.5h-42.5h-35q3 27 6 62.5t5 62.5q10 0 28 0.5t37 0.5
t36.5 -0.5t27.5 -0.5z" />
    <glyph glyph-name="numbersign" unicode="#" horiz-adv-x="346" 
d="M255 543l-12 -39q17 0 27 -0.5t12 -0.5q0 -4 0.5 -12t0.5 -17t0.5 -18t0.5 -15q-2 1 -18.5 1t-40.5 -1q-7 -23 -11.5 -37.5t-5.5 -16.5q-4 1 -11.5 3t-16.5 4t-17.5 4.5t-14.5 4.5q1 1 4 11t8 27h-19.5t-18.5 -1q-5 -18 -8.5 -29.5t-5.5 -13.5q-3 1 -10.5 3t-16.5 4
t-17.5 4.5t-14.5 4.5q2 2 8 27h-38v12t0.5 17.5l1 19t1.5 15.5h53q2 9 5 18.5t6 19.5h-46v12t0.5 17.5t1 18.5t0.5 15q3 1 20 1h42q7 24 11.5 41t6.5 20q3 -1 11 -3.5t17 -5.5l18 -6t14 -5q-1 -2 -4 -13t-8 -28h36q6 20 10 34t5 17q8 -2 28.5 -8.5t31.5 -11.5q0 -2 -2.5 -10
t-5.5 -22h30q0 -4 0.5 -12t0.5 -17.5v-18v-14.5h-49zM177 504q3 10 6 19.5t5 18.5h-36q-3 -9 -5.5 -18.5t-5.5 -19.5h36z" />
    <glyph glyph-name="dollar" unicode="$" horiz-adv-x="416" 
d="M240 356q28 -20 54.5 -39.5t45 -40.5t26.5 -44.5t-1 -51.5q-6 -19 -21.5 -33.5t-38 -24.5t-49.5 -14t-56 -2q-2 -22 -3.5 -37t-2.5 -22q-22 9 -37.5 14t-24.5 7q1 7 2 20t3 31q-34 13 -63.5 37.5t-49.5 62.5q5 7 14.5 16.5t20 19.5t21.5 20.5t20 18.5q6 -11 19.5 -27
t30.5 -31l2 20l2 20q-24 17 -52 38.5t-45 41.5q-30 33 -30.5 70.5t19 69.5t56.5 52.5t82 18.5h6q5 33 8 55.5t5 29.5q24 -14 40.5 -22.5t28.5 -15.5q-2 -8 -4.5 -26.5t-6.5 -44.5q37 -20 67 -48.5t45 -51.5q-8 -6 -22 -15.5t-30 -20.5t-31.5 -21.5t-27.5 -17.5q-7 7 -22 27
q-2 -9 -3 -18t-2 -17q2 -1 2.5 -2t2.5 -2zM160 452q-11 -10 -6.5 -21.5t16.5 -22.5q2 12 3 24t3 23q-10 3 -16 -3zM242 205q7 8 -1 16.5t-23 17.5q-3 -23 -6 -42q19 -3 30 8z" />
    <glyph glyph-name="Euro" unicode="&#x20ac;" horiz-adv-x="525" 
d="M332 290q27 1 68 0.5t74 -0.5q-2 -26 -15.5 -62.5t-39 -69t-63.5 -55t-89 -21.5q-43 1 -76 12t-56 29.5t-37.5 44t-21.5 55.5h-31.5t-19.5 1q-1 15 1 41t4 50h42q1 6 1.5 12.5t1.5 12.5h-40q0 15 1.5 41.5t4.5 49.5q5 0 21.5 0.5t39.5 0.5q18 42 43.5 78.5t56.5 63
t66.5 39t73.5 6.5q44 -7 70 -28.5t39.5 -49t17.5 -56.5t3 -50q-14 0 -30.5 -1t-34.5 -1.5t-35.5 -1.5t-32.5 -1q0 28 -9 41t-22.5 13t-29 -13.5t-30.5 -39.5q31 0 39 -2q-1 -16 1 -39.5t2 -47.5q-5 1 -25.5 1t-49.5 -1q-2 -7 -3 -13.5t-2 -13.5q26 0 43.5 -0.5t22.5 -1.5
q-1 -17 1 -40t2 -47q-4 1 -19.5 0.5t-38.5 -0.5q10 -19 25.5 -25t32 1.5t31 29t22.5 58.5z" />
    <glyph glyph-name="cent" unicode="&#xa2;" horiz-adv-x="289" 
d="M166 333q15 1 35 0.5t39 -0.5q-1 -14 -7 -33t-19 -36t-33 -29t-49 -12h-2q-2 -14 -2.5 -22.5t-1.5 -12.5q-7 2 -17 0.5t-21 -0.5q0 4 1 14.5t3 27.5q-26 10 -42 32t-22 50.5t-3 59t15 58t32 48.5t48 29q2 14 2.5 23.5t1.5 14.5q7 1 18 -2.5t21 -8.5q0 -3 -0.5 -8.5
t-1.5 -13.5q2 -1 8 -1q21 -3 34.5 -15t20.5 -27.5t9.5 -31.5t1.5 -27q-6 -2 -16 -4t-21 -4t-21.5 -3.5t-16.5 -2.5q0 16 -8 24q-4 -30 -7 -62.5t-7 -62.5q8 3 15.5 12t12.5 26zM95 362q-1 -26 6 -44q2 23 4.5 45.5t4.5 45.5q-12 -17 -15 -47z" />
    <glyph glyph-name="ampersand" unicode="&#x26;" horiz-adv-x="593" 
d="M518 70q-12 -8 -30.5 -18.5l-37 -21t-34 -19t-20.5 -11.5q-2 2 -8 14t-17 30q-27 -24 -61 -34.5t-70 -9.5q-47 1 -80.5 15t-55 38t-32 56.5t-10.5 70.5q0 20 5.5 41.5t15.5 41.5t23.5 36.5t28.5 27.5q-18 23 -29.5 53t-11.5 65q0 33 13 62.5t34.5 51.5t50.5 35t61 13
t61.5 -13t52 -35t35 -51.5t10.5 -62.5q-2 -32 -12.5 -62.5t-43.5 -58.5q2 -2 14 -20.5t29.5 -46.5l37.5 -60t37.5 -59.5t29.5 -46.5t14 -21zM254 480q-22 1 -33 -14t-11 -34t10.5 -35t32.5 -16q22 1 34.5 15.5t13 32.5t-10.5 33.5t-36 17.5zM253 100q18 -1 36 7.5t27 30.5
q-12 21 -23 40.5t-20 34t-15 23.5t-7 9q-16 1 -28.5 -4.5t-21.5 -15.5t-13.5 -23t-4.5 -27q0 -29 17 -51t53 -24z" />
    <glyph glyph-name="quotesingle" unicode="'" horiz-adv-x="320" 
d="M140 703q29 -13 62 -30t68 -35q-17 -22 -40 -52.5t-47 -61t-46.5 -56t-39.5 -35.5q-20 12 -38 24.5t-26 15.5q3 6 11 23t18 40t22 48.5t23 49t19.5 42t13.5 27.5z" />
    <glyph glyph-name="parenleft" unicode="(" horiz-adv-x="299" 
d="M269 538q-50 -27 -83 -73t-50.5 -100.5t-20 -113t9 -111.5t35.5 -95.5t61 -65.5q-10 -13 -18.5 -24t-18.5 -21.5t-22 -22t-28 -26.5q-30 17 -55 53.5t-43 86t-27.5 108t-8.5 120.5t14.5 123.5t41.5 116t72 99t106 72.5q8 -26 16 -61t19 -65z" />
    <glyph glyph-name="parenright" unicode=")" horiz-adv-x="313" 
d="M1 538q11 30 19 65t16 61q62 -28 106 -72.5t72 -99t41.5 -116t14.5 -123.5t-8.5 -120.5t-27.5 -108t-43 -86t-55 -53.5q-17 15 -28.5 26.5t-21.5 22t-18.5 21.5t-18.5 24q36 23 60.5 65.5t36 95.5t9 111.5t-20 113t-50.5 100.5t-83 73z" />
    <glyph glyph-name="asterisk" unicode="*" horiz-adv-x="343" 
d="M272 499q-2 1 -18.5 0.5t-41.5 -0.5q16 -17 26.5 -29.5t12.5 -14.5q-3 -3 -9 -8t-13 -11t-14 -11.5t-12 -8.5q-2 2 -9.5 10.5t-19.5 22.5q-1 -20 -1 -32.5v-14.5q-4 0 -11.5 -0.5t-16.5 -0.5h-17.5h-14.5v55q-16 -16 -26.5 -26t-12.5 -12l-8.5 8.5t-12 11.5t-12.5 12
l-10 10q2 1 12 11.5t26 26.5h-53v12t0.5 17l1 18t0.5 15h57q-16 19 -26.5 31t-11.5 14q3 3 8.5 8t11.5 11t12.5 12t10.5 10q1 -2 9.5 -11.5t22.5 -24.5v47h11t17.5 -0.5t18.5 -1t14 -1.5q1 -2 1 -15.5v-34.5q15 15 25 25.5t12 12.5l8.5 -8.5t12 -12.5t12.5 -14t9 -11
l-36 -36q23 0 37.5 -0.5t16.5 -0.5v-11.5v-16.5t0.5 -17.5t0.5 -14.5z" />
    <glyph glyph-name="plus" unicode="+" horiz-adv-x="330" 
d="M285 216v-27.5t1 -40t1.5 -42.5t0.5 -34q-5 1 -23.5 1t-46.5 -1q0 -26 -0.5 -45t-1.5 -24h-27.5t-40 -1t-42.5 -1.5t-34 -0.5q1 5 1 23.5t-1 46.5q-26 -1 -45 -1t-27 1v28t1 41t2 43.5t3 35.5q6 0 23 0.5t41 0.5q-1 25 -1 43t1 26h28t41 -1t43.5 -2.5t35.5 -2.5
q0 -6 0.5 -23t0.5 -41q26 0 43.5 -0.5t22.5 -1.5z" />
    <glyph glyph-name="comma" unicode="," horiz-adv-x="217" 
d="M22 62h32.5t45 -1t43.5 -1h28q0 -6 -2.5 -23.5t-8 -41t-16.5 -49.5t-28.5 -49.5t-42.5 -41.5t-60 -24q8 21 14 46.5t8.5 54.5t-0.5 62t-13 68z" />
    <glyph glyph-name="hyphen" unicode="-" horiz-adv-x="340" 
d="M285 373v-27.5t1 -40t1.5 -42.5t0.5 -34q-5 1 -25.5 1t-49.5 -0.5t-62.5 -1.5t-64 -1.5t-54 -0.5t-32.5 1v28t1 41t2 43.5t3 35.5q7 0 29 0.5t51 0.5h62t62 -0.5t49.5 -1t25.5 -1.5z" />
    <glyph glyph-name="period" unicode="." horiz-adv-x="214" 
d="M158 0h-35h-42.5t-40 0.5t-25.5 0.5q0 13 0.5 30.5t1.5 35t1 33.5v25q10 0 27.5 0.5t36.5 0.5t37 -0.5t28 -0.5q2 -27 5 -62.5t6 -62.5z" />
    <glyph glyph-name="slash" unicode="/" horiz-adv-x="397" 
d="M258 636q36 -20 61 -33t44 -24q-5 -11 -18.5 -42t-31.5 -75t-40 -97t-45 -108t-44.5 -108t-39 -97.5t-29.5 -76.5t-16 -44q-35 14 -59 22.5t-38 12.5q4 14 16 48t29.5 81t38 103t42.5 113t43 112t38.5 99.5t30.5 74.5t18 39z" />
    <glyph glyph-name="zero" unicode="0" horiz-adv-x="444" 
d="M203 605q56 -1 94.5 -24.5t62.5 -64.5t35 -95.5t11 -117.5t-14 -118.5t-40.5 -97.5t-64 -65.5t-84.5 -21.5q-52 2 -90.5 26t-63.5 64.5t-37 95t-12 117.5t13 118t38.5 96.5t63.5 65t88 22.5zM203 130q18 -1 32 12t23.5 35t14 52t4.5 63q0 34 -3.5 63.5t-12 51t-22.5 34.5
t-36 14q-20 0 -33.5 -12.5t-22.5 -35t-13 -52t-4 -63.5q0 -33 4 -62.5t12.5 -51t22.5 -34.5t34 -14z" />
    <glyph glyph-name="one" unicode="1" horiz-adv-x="361" 
d="M176 608q31 0 71 -1t77 1q-1 -15 -2 -59t-3 -104t-4.5 -128.5t-4.5 -131.5t-4 -112.5t-3 -72.5h-127q1 14 1.5 46.5t0.5 76v94.5v104q-24 -37 -42.5 -63.5t-23.5 -32.5q-6 5 -19.5 16.5t-29 26t-32.5 30.5t-31 31q11 13 35 48t51 77t52 83.5t38 69.5v1v0z" />
    <glyph glyph-name="two" unicode="2" horiz-adv-x="411" 
d="M129 112q31 2 69 4.5t73 5t61.5 5t34.5 3.5v-29.5t0.5 -36.5t0.5 -36v-28h-364q-1 10 -3 41q-4 67 10.5 111.5t37.5 74.5t50.5 49.5t49.5 36.5q15 12 33.5 28.5t33 35.5t19 37t-9.5 33q-12 12 -26.5 5t-28 -26t-23 -45.5t-11.5 -52.5q-15 9 -33 21t-35 23.5t-32.5 22
t-25.5 17.5q4 24 20 57t42 63.5t61.5 52t79.5 21.5q42 1 73.5 -13t52 -37t31.5 -52.5t11.5 -60.5t-9 -61.5t-28.5 -54.5q-27 -34 -61 -58.5t-66 -48t-56.5 -48.5t-31.5 -60z" />
    <glyph glyph-name="three" unicode="3" horiz-adv-x="420" 
d="M318 287q28 -11 48.5 -42.5t16.5 -88.5q-2 -37 -20.5 -64.5t-47.5 -46.5t-65.5 -29.5t-75 -14t-76 0t-68.5 13.5q-3 1 -3.5 22t-0.5 46q0 29 1 65q12 -5 34.5 -11t49.5 -9.5t54.5 -3.5t49.5 6.5t36 20.5t14 39q0 23 -19.5 30t-46 6t-54 -6t-43.5 -6l-0.5 20t-0.5 45
t0.5 47t0.5 27q17 -2 45.5 -2.5t55.5 5.5t47.5 22t21.5 48q1 30 -25 35t-63 -6t-77 -34t-66 -49l-41 189q16 8 49.5 20.5t75.5 20t86 6.5t81 -18.5t61.5 -56t26.5 -106.5q2 -54 -14 -91.5t-48 -48.5z" />
    <glyph glyph-name="four" unicode="4" horiz-adv-x="438" 
d="M398 295q0 -7 -0.5 -31t-1.5 -52.5t-1.5 -54.5t0.5 -35q-5 0 -28.5 -0.5t-58.5 -1.5q-2 -36 -4 -67.5t-3 -52.5h-92q0 15 -1.5 46.5t-3.5 71.5q-31 0 -61 -0.5t-54.5 -1t-41 -1t-21.5 -0.5q1 17 -1 53t-4.5 82.5t-6 98.5t-6.5 101t-5.5 90t-2.5 66h170q-1 -15 -2.5 -52
t-3 -85t-3.5 -101.5t-4 -100.5q10 2 19.5 2.5t20.5 2.5q-1 32 -2 59.5t-1 48.5q26 0 59.5 -1.5t70.5 -3.5q-1 -12 -2 -35t-3 -53q30 4 51.5 6t27.5 2z" />
    <glyph glyph-name="five" unicode="5" horiz-adv-x="375" 
d="M150 370q61 -3 100.5 -25t62 -52.5t30.5 -65t7 -62.5q-6 -108 -96 -145t-254 -5q1 5 5 30t9 53q5 33 12 73q11 -6 29 -13t39 -12t42.5 -7.5t39 0t29 12t12.5 27.5q2 30 -22 43.5t-57 17t-67.5 1t-54.5 -4.5q-1 10 -2.5 38t-2 66t-1 80.5t-1 80.5t0 67t1.5 40h36h60
t72.5 0.5t72.5 0.5h60h36q-1 -14 -1.5 -35t-1.5 -43t-2.5 -42t-3.5 -32q-28 1 -55.5 4t-51.5 5.5t-41.5 4.5t-26.5 2q-4 -22 -8 -50.5t-6 -51.5z" />
    <glyph glyph-name="six" unicode="6" horiz-adv-x="401" 
d="M207 391q43 -4 75 -21t52 -43.5t29 -61.5t8 -74q-2 -42 -16 -77t-38.5 -60.5t-57 -39.5t-69.5 -14q-30 0 -59 8.5t-53.5 26.5t-42.5 45.5t-25 65.5q-15 74 -9 137.5t25.5 115t49.5 90.5t64 65.5t69 40t64 13.5q-1 -9 -1.5 -30t-0.5 -44.5t0.5 -45.5t0.5 -32
q-38 0 -75 -16.5t-63 -58.5q37 14 73 10zM183 114q30 -1 47.5 19t19 45.5t-14.5 48t-52 25.5q-24 2 -41.5 -18.5t-20.5 -46.5t10.5 -48.5t51.5 -24.5z" />
    <glyph glyph-name="seven" unicode="7" horiz-adv-x="380" 
d="M270 171q-7 0 -18.5 -0.5t-25.5 -1.5q-8 -50 -10 -93.5t4 -75.5q-14 1 -30.5 1t-32.5 -0.5t-30.5 -0.5h-24.5q-7 37 -6 77t6 83q-29 -3 -47 -3q0 10 -0.5 30.5t-0.5 43.5v44.5t1 32.5q11 -1 31 -4t44 -7q11 42 23 82t24 76h-87.5t-89.5 -1v28v45.5t0.5 46.5t0.5 32h350
q-7 -12 -19.5 -44t-27 -76t-29.5 -98t-28 -109q7 -1 12.5 -1.5t10.5 -0.5v-106z" />
    <glyph glyph-name="eight" unicode="8" horiz-adv-x="403" 
d="M304 334q30 -26 50 -63t18 -80q-2 -51 -19 -87.5t-44 -60t-61 -34t-70 -9.5q-47 1 -80.5 15t-55 38t-32 56.5t-10.5 70.5q0 20 5.5 41.5t15.5 41.5t23.5 36.5t28.5 27.5q-18 23 -29.5 53t-11.5 65q0 33 13 62.5t34.5 51.5t50.5 35t61 13t61.5 -13t52 -35t35 -51.5
t10.5 -62.5q-2 -32 -15.5 -60.5t-30.5 -50.5zM192 480q-22 1 -33 -14t-11 -34t10.5 -35t32.5 -16q22 1 34.5 15.5t13 32.5t-10.5 33.5t-36 17.5zM191 100q28 -2 48 18.5t18 56.5q-2 33 -19 51.5t-49 18.5t-50 -20.5t-18 -49.5t17 -51t53 -24z" />
    <glyph glyph-name="nine" unicode="9" horiz-adv-x="408" 
d="M361 461q24 -111 8 -197.5t-57.5 -145.5t-102.5 -89.5t-127 -28.5v26.5v35t0.5 35.5t0.5 28q61 -12 104.5 17t65.5 92q-43 -22 -89 -18q-44 4 -75.5 21t-51.5 44t-29.5 62t-7.5 74q1 42 15.5 77t39 60.5t56.5 39.5t70 14q30 0 59 -8.5t53 -26.5t42 -46t26 -66zM180 304
q18 -1 33 9t24.5 26.5t12 36.5t-3.5 37.5t-22 30t-44 13.5q-23 1 -39 -9.5t-25 -26.5t-10 -36t6.5 -37t24 -29.5t43.5 -14.5z" />
    <glyph glyph-name="colon" unicode=":" horiz-adv-x="188" 
d="M11 125q10 0 27.5 0.5t36.5 0.5t37 -0.5t28 -0.5q2 -27 5 -62.5t6 -62.5h-35h-42.5t-40 0.5t-25.5 0.5q0 13 0.5 30.5t1.5 35t1 33.5v25zM151 172h-35h-42.5t-40 0.5t-25.5 0.5q0 13 0.5 31t1.5 35.5t1 33v24.5q10 0 27.5 0.5t36.5 0.5t37 -0.5t28 -0.5q2 -27 5 -62.5
t6 -62.5z" />
    <glyph glyph-name="semicolon" unicode=";" horiz-adv-x="203" 
d="M13 62h32.5t45 -1t43.5 -1h28q0 -6 -2.5 -23.5t-8 -41t-16.5 -49.5t-28.5 -49.5t-42.5 -41.5t-60 -24q8 21 14 46.5t8.5 54.5t-0.5 62t-13 68zM159 110h-35h-42.5t-40 0.5t-25.5 0.5q0 13 0.5 31t1.5 35.5t1 33v24.5q10 1 27.5 1h36.5t37 -0.5t28 -0.5q2 -27 5 -62.5
t6 -62.5z" />
    <glyph glyph-name="equal" unicode="=" horiz-adv-x="335" 
d="M288 210h-25.5t-49.5 -0.5t-62.5 -1t-64 -1t-54 -0.5t-32.5 1v27t1 41.5t2 44t3 34.5q7 1 29 1h51h62t62 -0.5t49.5 -1t25.5 -1.5v-27.5t1 -39.5t1.5 -42t0.5 -34zM285 147v-28t1 -40t1.5 -42t0.5 -34q-5 1 -25.5 0.5t-49.5 -1t-62.5 -1t-64 -1t-54 -0.5t-32.5 1v27
t1 41.5t2 44t3 35.5q7 0 29 0.5t51 0.5h62t62 -0.5t49.5 -1t25.5 -1.5z" />
    <glyph glyph-name="question" unicode="?" horiz-adv-x="461" 
d="M34 125q10 0 27.5 0.5t36.5 0.5t37 -0.5t28 -0.5q2 -27 5 -62.5t6 -62.5h-35h-42.5t-40 0.5t-25.5 0.5q0 13 0.5 30.5t1.5 35t1 33.5v25zM248 708q61 3 103 -26t59.5 -74t6.5 -98.5t-56 -100.5q-38 -39 -76.5 -62t-68.5 -46.5t-45 -54.5t-6 -86q-25 -1 -60 0t-70 0
q-5 66 6.5 105.5t32 64t46.5 39.5t50 32q16 11 41 31.5t45.5 43t30 44t-5.5 36.5q-13 12 -36.5 8t-47.5 -19t-42 -38.5t-21 -49.5q-33 18 -63 37.5t-53 34.5q5 23 27 53.5t54.5 58t71 46.5t77.5 21z" />
    <glyph glyph-name="at" unicode="@" horiz-adv-x="655" 
d="M312 345q53 -1 78 -29.5t34 -76t7.5 -109.5t-2.5 -128q-14 1 -33.5 -1.5t-46.5 -0.5v16q-24 -16 -51.5 -20.5t-51.5 5t-41 33t-18 63.5q-2 40 15.5 62.5t43.5 29.5t55.5 0.5t53.5 -22.5q0 9 0.5 16.5t-0.5 13.5q0 23 -12.5 36t-26.5 14.5t-25.5 -9.5t-9.5 -36
q-17 -1 -35 -3t-35 1q-1 19 3 44t16 47.5t32 38t50 15.5zM266 74q1 -22 11 -33t23.5 -12t26.5 6.5t20 22.5q4 8 2.5 18t-4.5 15q-8 12 -21.5 18.5t-26.5 5.5t-22.5 -10.5t-8.5 -30.5zM308 531q73 0 130.5 -29t97 -78t60.5 -114.5t21 -138.5q0 -74 -24 -138.5t-66 -112.5
t-98.5 -75.5t-120.5 -27.5t-120 27.5t-98 75.5t-66 112.5t-24 138.5q0 73 21.5 138.5t61.5 114.5t97 78t128 29zM308 -65q51 -4 88 14.5t61 51.5t35 77.5t10 92.5q-4 105 -53.5 161.5t-140.5 58.5q-45 1 -80.5 -17t-60 -48.5t-38 -71t-14.5 -83.5q-1 -44 10 -85t35 -73.5
t61 -53t87 -24.5z" />
    <glyph glyph-name="divide" unicode="&#xf7;" horiz-adv-x="188" 
d="M11 125q10 0 27.5 0.5t36.5 0.5t37 -0.5t28 -0.5q2 -27 5 -62.5t6 -62.5h-35h-42.5t-40 0.5t-25.5 0.5q0 13 0.5 30.5t1.5 35t1 33.5v25zM151 172h-35h-42.5t-40 0.5t-25.5 0.5q0 13 0.5 31t1.5 35.5t1 33v24.5q10 0 27.5 0.5t36.5 0.5t37 -0.5t28 -0.5q2 -27 5 -62.5
t6 -62.5z" />
    <glyph glyph-name="ccedilla" unicode="&#xe7;" horiz-adv-x="413" 
d="M375 190q-2 -23 -12 -55t-30.5 -61t-53.5 -50.5t-80 -24.5q-2 -7 -3 -13t-3 -11q19 -7 33.5 -29t5.5 -56q-7 -25 -24.5 -38t-39 -14.5t-43 7t-36.5 27.5q6 19 13 30t18 22q5 -9 14 -15.5t18 -9.5t17 -0.5t10 13.5t-3.5 21t-15 16.5t-20.5 10t-20 0.5q2 11 4.5 23t4.5 25
q-54 17 -85 63t-40 103.5t3 119t44 110.5t82 77t118 19q37 -5 60.5 -26t36 -48t16.5 -55t3 -47q-10 -3 -27.5 -6.5t-36.5 -6.5t-37 -6t-29 -5q-1 32 -17 45t-36.5 6.5t-38 -34t-21.5 -76.5q-4 -47 10.5 -77t35.5 -38.5t43 6.5t33 58q27 2 62 1t67 -1z" />
    <glyph glyph-name="multiply" unicode="&#xd7;" horiz-adv-x="347" 
d="M262 159q19 -17 32 -29.5t15 -16.5l-18 -21t-25.5 -30.5t-27 -32.5t-22.5 -26q-2 4 -16.5 16.5t-35.5 30.5q-18 -20 -31 -33.5t-17 -16.5q-6 6 -20 18t-30.5 25.5t-32.5 27t-26 22.5q4 3 16.5 17.5t29.5 34.5q-20 17 -34 30t-19 19q5 6 18 20t28.5 30t31 31.5t25.5 24.5
q5 -4 17.5 -15t30.5 -27q16 19 28.5 32.5t17.5 18.5q7 -5 21 -18t30 -28.5t31.5 -30.5t24.5 -25q-4 -5 -15 -18t-27 -30z" />
    <glyph glyph-name="grave" unicode="`" horiz-adv-x="399" 
d="M142 651q8 -6 28 -17.5t42.5 -23.5t41.5 -21.5t25 -11.5q-4 -15 -7.5 -34.5t-4.5 -24.5q-7 1 -26.5 5t-42 9t-43.5 9.5t-31 6.5q3 21 8 49.5t10 53.5z" />
    <glyph glyph-name="acute" unicode="&#xb4;" horiz-adv-x="400" 
d="M261 651q5 -25 10 -53.5t8 -49.5q-10 -2 -31 -6.5t-43.5 -9.5t-42 -9t-26.5 -5q-1 5 -4.5 24.5t-7.5 34.5q6 2 25 11.5t41.5 21.5t42.5 23.5t28 17.5z" />
    <glyph glyph-name="tilde" unicode="&#x2dc;" horiz-adv-x="414" 
d="M292 630q4 -7 8.5 -18t9 -22.5t8.5 -21t7 -13.5q-18 -16 -36.5 -25t-35 -12t-30 0t-21.5 11t-19.5 13t-24 5t-24 -4.5t-18.5 -14.5q-3 5 -6.5 14.5t-8 20l-9 21t-9.5 18.5q9 18 26 27.5t35.5 11.5t36 -2.5t29.5 -13.5q20 -15 40 -16.5t42 21.5z" />
    <glyph glyph-name="circumflex" unicode="&#x2c6;" horiz-adv-x="409" 
d="M300 566q-10 -12 -21 -28.5t-14 -20.5q-6 4 -23 16.5t-37 26.5q-20 -14 -37.5 -26.5t-22.5 -16.5q-3 4 -14.5 20.5t-21.5 28.5q5 4 18.5 20.5t29 36.5t29 38.5t18.5 27.5l1 -1v1q5 -9 18.5 -27.5t29 -38.5t29 -36.5t18.5 -20.5z" />
    <glyph glyph-name="dieresis" unicode="&#xa8;" horiz-adv-x="425" 
d="M93 643q5 -1 19 -1t31 -0.5t33.5 -0.5t26.5 -1q1 -9 1 -24v-32t-0.5 -34t-0.5 -31q-8 -1 -22 -1t-29 0.5t-28 1t-19 2.5q0 9 -1.5 24t-3.5 32l-4 34t-3 31zM217 636q10 1 26 1t33 0.5t31 0.5t19 1q-1 -14 -2.5 -31t-3.5 -34t-3.5 -32t-1.5 -24q-6 -2 -19.5 -3t-28.5 -1.5
t-29 0t-22 1.5q0 14 -0.5 31t-0.5 34t0.5 32t1.5 24z" />
    <glyph glyph-name="endash" unicode="&#x2013;" horiz-adv-x="496" 
d="M412 373v-27.5t1 -40t1.5 -42.5t0.5 -34q-4 1 -34.5 1t-73.5 -0.5t-93 -1.5t-94.5 -1.5t-77.5 -0.5t-42 1v28t1 41t2 43.5t3 35.5q7 0 38 0.5t74.5 0.5h93t92.5 -0.5t73 -1t35 -1.5z" />
    <glyph glyph-name="emdash" unicode="&#x2014;" horiz-adv-x="685" 
d="M620 373v-27.5t1 -40t1.5 -42.5t0.5 -34q-3 1 -30.5 1t-69.5 -0.5t-95.5 -1t-109.5 -0.5t-110 -0.5t-98 -1t-73.5 -0.5t-36.5 1v28t1 41t2 43.5t3 35.5q5 0 33.5 0.5t71 0.5h96h109t108.5 -0.5t95.5 -0.5t69.5 -0.5t31 -1.5z" />
    <glyph glyph-name="trademark" unicode="&#x2122;" horiz-adv-x="506" 
d="M459 504q4 -21 4 -44t-2 -45.5t-6 -43t-8 -35.5h-69q4 19 9.5 44.5t8 49t-0.5 41t-15 21.5q-13 2 -23 -9.5t-12 -35.5q-2 -31 -5.5 -61t-8.5 -50h-73q4 19 9 44t6.5 47.5t-2 39.5t-15.5 20q-19 4 -27 -26q-1 -21 -2.5 -42.5t-2.5 -38.5t-2 -29t-1 -15h-58v236h74v-7.5
t-1 -12.5q11 13 26 18t30 1t27.5 -17t19.5 -35q13 28 31.5 41.5t36 11t32 -19.5t20.5 -48zM190 666q-2 -13 -4 -35t-4 -32h-37q-2 -37 -4 -80.5t-4 -82t-3.5 -66.5t-1.5 -34h-63q0 14 -0.5 44t-1 67.5t-1 77.5t-0.5 74h-29v59q6 2 13.5 2h15.5v22h85q-1 -3 -1 -19
q13 2 23.5 2t16.5 1z" />
    <glyph glyph-name="oe" unicode="&#x153;" horiz-adv-x="705" 
d="M612 213l13.5 -27l14.5 -29t12.5 -26t8.5 -19q-11 -22 -31 -44t-47.5 -38.5t-61.5 -25t-73 -3.5q-72 9 -121 66q-25 -32 -59 -50.5t-77 -16.5q-49 1 -85 21.5t-59.5 54t-35 79t-11.5 98.5q0 52 12 98.5t36 81t60 54.5t83 19q49 -2 83.5 -19t57.5 -47q32 34 72.5 49.5
t80.5 11.5q73 -7 109 -54.5t36 -120.5q0 -36 -13 -68t-35.5 -56t-54 -38t-67.5 -14q-15 0 -29.5 2.5t-28.5 7.5q22 -32 54.5 -40.5t64 0.5t57 33.5t34.5 59.5zM258 199q8 44 -1.5 73t-44.5 40q-32 11 -53.5 -9.5t-30.5 -64.5q-8 -43 2 -74.5t43 -43.5q29 -10 52.5 13
t32.5 66zM464 365q-25 -2 -44 -18.5t-17 -48.5q2 -30 21.5 -43t45.5 -12q29 1 49 20t16 54q-3 29 -24.5 39.5t-46.5 8.5z" />
    <glyph glyph-name="ae" unicode="&#xe6;" horiz-adv-x="679" 
d="M591 213l13.5 -27l14.5 -29t12.5 -26t8.5 -19q-11 -22 -31 -44t-47.5 -38.5t-61.5 -25t-73 -3.5q-35 5 -65 21v-22h-126q-1 4 -1 10v14q-34 -23 -74 -28.5t-75 8t-59.5 48t-26.5 91.5q-2 59 23 91t63 42t81.5 1t77.5 -32q0 13 0.5 24t-0.5 19q-1 33 -16 52t-31.5 21.5
t-29.5 -13.5t-9 -52q-9 0 -25.5 -0.5t-34.5 -1t-35.5 -1t-28.5 -0.5q-2 27 4.5 61.5t23 66t45.5 54.5t73 27q51 5 84.5 -9.5t54.5 -43.5q30 29 68 42.5t76 9.5q73 -7 109 -54.5t36 -120.5q0 -36 -13 -68t-35.5 -56t-54 -38t-67.5 -14q-15 0 -29.5 2.5t-28.5 7.5
q22 -32 54.5 -40.5t64 0.5t57 33.5t34.5 59.5zM443 365q-25 -2 -44 -18.5t-17 -48.5q2 -30 21.5 -43t45.5 -12q29 1 49 20t16 54q-3 29 -24.5 39.5t-46.5 8.5zM228 93q7 11 7 22.5t-5 19.5q-11 16 -30.5 25.5t-39 8t-33.5 -15.5t-12 -44q1 -25 15 -38t32.5 -14.5t37 8
t28.5 28.5z" />
    <glyph glyph-name="A" unicode="A" horiz-adv-x="577" 
d="M373 -53q-2 7 -5.5 29.5t-8.5 52t-10.5 62.5t-10.5 61q-32 -3 -74 -7t-75 -6q-3 -13 -6 -34.5t-6 -42.5l-5.5 -38.5t-3.5 -23.5h-168q4 27 15 83.5t26 127t32 148t33 145.5t28.5 120t18.5 72h45.5t74 -0.5t73.5 -0.5h44q3 -14 11.5 -52.5t20 -91t25.5 -115.5t28 -127.5
t27.5 -126t24 -111t17.5 -83t8 -41.5h-179zM216 265q25 -1 51 -1.5t50 -1.5q-7 35 -14 69t-13.5 64.5t-12.5 56l-10 42.5q-4 -18 -9.5 -43.5t-12.5 -56t-14.5 -63.5t-14.5 -66z" />
    <glyph glyph-name="B" unicode="B" horiz-adv-x="570" 
d="M403 337q67 -25 98.5 -67t29.5 -93q-3 -59 -51.5 -97.5t-124.5 -58t-169 -21t-186 13.5q1 14 1 50v85v107v116.5v113.5t-0.5 97.5t-0.5 68v26.5q0 10 20.5 18t54.5 13t77.5 4.5t89 -7.5t88.5 -22t76.5 -40.5t53.5 -62.5t19 -88q-1 -48 -20.5 -87.5t-55.5 -68.5zM183 544
q-2 -31 -5 -65t-6 -69q31 -5 58 -3t46.5 12t31.5 28t13 45q1 21 -11 34t-31.5 19t-44.5 5.5t-51 -6.5zM337 185q1 29 -17.5 44t-46 21.5t-59.5 6.5t-56 -1q-3 -35 -5.5 -67.5t-5.5 -61.5q31 -6 64 -6.5t61 6t46 21t19 37.5z" />
    <glyph glyph-name="D" unicode="D" horiz-adv-x="527" 
d="M0 663q0 19 22 29t58.5 10.5t82.5 -9.5t93.5 -31.5t92.5 -54t79 -77t53.5 -102t15.5 -128.5t-33 -131t-88.5 -100.5t-152 -58.5t-223.5 -4q1 14 1 49.5v84.5v106.5v115.5v112.5t-0.5 96t-0.5 67v25.5zM318 306q3 40 -7 73t-28.5 59t-45.5 45t-58 32q-4 -42 -8 -90
t-8.5 -97.5t-8.5 -97.5t-8 -90q48 4 80.5 19.5t52 38.5t28.5 51t11 57z" />
    <glyph glyph-name="E" unicode="E" horiz-adv-x="443" 
d="M413 530q-10 0 -34.5 0.5t-56.5 1t-69.5 1.5t-73.5 2q-3 -29 -6 -60.5t-6 -64.5q32 2 69.5 3t65.5 4q0 -12 -0.5 -38.5t-1 -56t-2 -55.5t-2.5 -35q-11 2 -28 4t-37.5 3.5l-41 3t-38.5 3.5q-2 -21 -4 -41.5t-4 -40.5q33 2 71 4t75 3.5t69 2t52 -0.5v-173h-45h-73h-87h-86
h-70.5h-40.5h-12q1 20 1.5 71.5t1 118.5t0.5 143v146t-0.5 127t-1.5 87q1 0 25.5 0.5t63 1t86 1t93.5 0.5t85.5 -1t62.5 -3v-162v0z" />
    <glyph glyph-name="F" unicode="F" horiz-adv-x="334" 
d="M417 530q-10 0 -34 0.5t-56.5 1t-70 1.5t-73.5 2q-3 -29 -6 -60t-6 -64q33 1 70 2.5t65 4.5q0 -12 -0.5 -39t-1 -56t-2 -55t-2.5 -35q-11 1 -28 3t-37.5 4t-41 3.5t-38.5 3.5q-4 -41 -7.5 -79t-6.5 -70.5t-5 -57t-3 -39.5h-133q1 20 1.5 71t1 118t1 143t0 146.5
t-0.5 127.5t-1 87q1 0 25.5 0.5t63 1t85.5 1t93 0t85.5 -1.5t62.5 -3v-162v0z" />
    <glyph glyph-name="G" unicode="G" horiz-adv-x="576" 
d="M534 321v-33t-1.5 -58.5t-3 -70.5t-3.5 -70t-4 -57t-4 -30h-98q2 12 3 28.5t3 36.5q-32 -30 -74 -49t-96 -18q-87 1 -142 34t-82.5 85.5t-30.5 118t13 133t49.5 131t78.5 110.5t99.5 72t112.5 16q57 -9 91 -37.5t52 -64.5t22.5 -74t3.5 -65q-18 0 -40 -1t-45 -2t-45.5 -2
t-41.5 -1q-2 48 -23 63t-49.5 0t-57.5 -59.5t-46 -115.5q-12 -50 -8 -88t17 -62t33.5 -33.5t41.5 -4t41 27t32 59.5q-18 -5 -34 -9.5t-26 -9.5q-6 23 -10 51.5t-2 51.5q13 6 50 10.5t80 5.5t83.5 -3t60.5 -16z" />
    <glyph glyph-name="H" unicode="H" horiz-adv-x="520" 
d="M492 391q0 -14 -1 -40t-2 -53t-2 -51t-1 -34q-12 1 -40 3v-132t-2 -84h-156q1 23 3.5 83t5.5 138q-36 2 -74 2.5t-73 1.5q-2 -27 -3 -61.5t-2.5 -66.5t-2.5 -58.5t-2 -37.5h-139q1 20 1 71.5v118.5t-0.5 143.5t-1 146.5t-1 127.5t-1.5 86.5h179q0 -12 -2 -43t-4 -73
t-5.5 -93t-6.5 -104q35 2 72 3.5t73 3.5q2 49 3.5 95.5t2.5 87t1.5 72.5t-0.5 51h131v-40v-69.5t0.5 -90t1.5 -102.5q15 0 27.5 -0.5t20.5 -1.5z" />
    <glyph glyph-name="I" unicode="I" horiz-adv-x="214" 
d="M5 0q1 20 1 64.5t-0.5 101.5t-1 121.5t-1.5 125t-1.5 111t-1.5 79.5h178q-1 -16 -3.5 -60t-5.5 -102.5t-7 -125t-7.5 -128t-6.5 -112t-4 -75.5h-139zM173 696q1 -16 2 -37t3 -40h-178q2 20 4.5 35.5t4.5 41.5h164z" />
    <glyph glyph-name="J" unicode="J" horiz-adv-x="521" 
d="M498 695q1 -36 0.5 -90t-2 -112.5t-3 -114t-2.5 -94.5q-2 -50 -13.5 -100t-38.5 -90.5t-71.5 -66.5t-110.5 -27q-61 -2 -108.5 23t-79.5 69.5t-49.5 105.5t-18.5 132h45h52.5t51 -0.5t40.5 -1.5q-8 -57 -1.5 -93.5t21.5 -56t34.5 -24t38 3.5t32.5 26.5t17 44.5t3.5 70
t-0.5 95t-3.5 103.5t-5 96t-4 71.5t-1.5 31q43 -1 88.5 -0.5t88.5 -0.5z" />
    <glyph glyph-name="K" unicode="K" horiz-adv-x="568" 
d="M244 355q33 -26 76.5 -60t86 -66.5t78.5 -60t54 -41.5q-11 -13 -26 -29.5t-31.5 -33.5t-33.5 -34t-33 -32q-10 9 -38 35t-63 60t-72.5 71.5t-67.5 70.5q-2 -29 -3 -65t-2 -70t-2 -61t-2 -39h-157q1 20 1 71t-1 118.5t-2 144t-2 147t-2 128t-2 86.5h196q-1 -9 -2 -29.5
t-2.5 -49t-3 -63t-2.5 -73.5q31 30 66 63t68 63t60.5 54t42.5 35q6 -7 19.5 -24.5t30.5 -38.5t34.5 -43t31.5 -39q-11 -10 -44.5 -33t-77 -51t-90 -57.5t-83.5 -53.5z" />
    <glyph glyph-name="L" unicode="L" horiz-adv-x="422" 
d="M392 2q-14 -1 -45.5 -1.5t-71 -0.5t-83 0.5t-81.5 0.5t-67 0.5t-39 0.5q1 20 1 71t-0.5 118.5t-1 144t-1.5 147t-1.5 128t-1.5 86.5h190q-1 -12 -3 -42.5t-5 -73.5t-7 -95t-8.5 -107.5t-8.5 -111t-8 -104.5q30 3 64.5 5.5t67.5 5t61.5 5t48.5 4.5v-181z" />
    <glyph glyph-name="M" unicode="M" horiz-adv-x="609" 
d="M538 682q1 -13 3.5 -47t6 -81t6.5 -103.5t6.5 -115t6.5 -114.5t5.5 -101.5t4.5 -77.5t2 -42h-178q-1 22 -2 56t-2.5 72.5t-2.5 78.5t-2 74.5t-2 60t-1 35.5q-8 -18 -19.5 -40.5t-24 -45l-25 -45l-22.5 -40.5q-14 19 -28 42.5t-26.5 46t-24 42t-19.5 31.5
q-1 -26 -2.5 -60.5t-2.5 -72.5t-2.5 -76.5t-3 -71t-2.5 -56t-2 -31.5h-41.5h-56.5h-53.5h-33.5q3 48 7.5 113.5t9.5 136.5t9.5 142.5t8.5 132.5t7 106t4 64h176q6 -20 16.5 -50.5t22.5 -62t24 -60t20 -43.5q25 57 46.5 110t38.5 93h148v0z" />
    <glyph glyph-name="N" unicode="N" horiz-adv-x="555" 
d="M338 695q20 1 48 1h57t54.5 -0.5t40.5 -0.5q-2 -24 -7 -79.5t-10.5 -126.5t-12 -149t-11.5 -147t-9 -121.5t-5 -71.5h-138l-9.5 23.5t-24.5 59t-32.5 78t-33.5 81.5t-28 68t-15 38q-2 -37 -5 -91t-6.5 -106.5t-6 -94.5t-3.5 -55h-181q2 49 5.5 113.5t7.5 134t7.5 139.5
t7 129.5t5.5 104t3 63.5q16 -1 41 -1.5t51.5 -1.5t51 -1.5t39.5 -0.5q3 -9 14.5 -37.5t28.5 -69.5t37.5 -90t41.5 -98q0 54 -0.5 104.5t-0.5 92.5t-0.5 71.5t-1.5 41.5z" />
    <glyph glyph-name="O" unicode="O" horiz-adv-x="547" 
d="M260 695q72 -1 121.5 -28.5t80 -74.5t44.5 -110t14 -135t-18 -135.5t-52 -111.5t-82 -75t-108 -25q-67 2 -116 30t-81 74.5t-47.5 108.5t-15.5 134t16.5 136t49 111.5t81 74.5t113.5 26zM260 150q23 -1 42 13.5t32 40t20 59.5t7 73q0 38 -5.5 71.5t-17.5 59t-31 40
t-47 15.5q-25 0 -44 -14.5t-31.5 -40t-19 -59.5t-6.5 -72q0 -39 6 -72.5t18.5 -58t31.5 -39.5t45 -16z" />
    <glyph glyph-name="P" unicode="P" horiz-adv-x="538" 
d="M3 654q0 10 23.5 19.5t61 16t85.5 7.5t97 -6t94.5 -24.5t79.5 -48t52 -76.5t11 -110q-8 -67 -35 -124t-72 -97.5t-107 -61.5t-138 -15q-4 -45 -6 -80t-4 -54h-145q0 11 0.5 44t0.5 79.5v103t0.5 114t0.5 112.5v98t0.5 71t0.5 32zM330 413q1 24 -10 42t-31 30.5t-46.5 19
t-56.5 7.5q-4 -48 -8 -101.5t-9 -108.5q33 -2 61.5 4.5t50 21t34.5 36t15 49.5z" />
    <glyph glyph-name="Q" unicode="Q" horiz-adv-x="565" 
d="M534 85q-8 -8 -20 -19t-25 -23t-26.5 -23.5t-24.5 -19.5q-5 5 -15.5 17t-24.5 29q-29 -23 -63.5 -35t-74.5 -10q-67 2 -116 29.5t-81 74t-47.5 109t-15.5 134.5t16.5 136t49 111.5t81 74.5t113.5 26q72 -2 121.5 -29.5t80 -74t44.5 -109.5t14 -135q0 -60 -12.5 -113
t-35.5 -98q20 -16 36 -29.5t26 -22.5zM260 150q19 0 36 9q-16 17 -27 29.5t-15 17.5q11 8 30.5 24t37.5 30q5 -4 11.5 -9.5t14.5 -12.5q7 22 10 47t3 51q0 39 -5.5 72.5t-17.5 59t-31 40t-47 15.5q-25 0 -44 -14.5t-31.5 -40t-19 -59.5t-6.5 -73q0 -38 6 -71.5t18.5 -58.5
t31.5 -40t45 -16z" />
    <glyph glyph-name="R" unicode="R" horiz-adv-x="524" 
d="M316 242q26 -13 52 -25.5t50 -24.5l44 -22t35 -18q-7 -13 -19 -34.5t-25.5 -44t-25.5 -43t-19 -30.5q-12 8 -40.5 27.5t-65 44t-77 52.5t-76.5 52q-2 -18 -3 -45t-2 -53.5t-2 -48t-2 -30.5h-139q1 20 1 69.5v114.5t-0.5 138.5t-1 141.5t-1 123.5t-1.5 84.5
q0 10 21.5 17.5t57 10.5t80.5 1t92 -12t92 -28.5t80 -48.5t55.5 -72t19.5 -98q-1 -35 -14.5 -66.5t-36.5 -58t-56 -45.5t-73 -29zM167 377q33 -8 61 -9t49 6t33.5 23t14.5 43q2 28 -8.5 48.5t-29.5 34t-46 19.5t-58 6q-3 -38 -7 -81.5t-9 -89.5z" />
    <glyph glyph-name="S" unicode="S" horiz-adv-x="554" 
d="M324 378q42 -30 81.5 -59.5t68 -61t40.5 -67t-2 -77.5q-11 -35 -45 -61t-80.5 -39.5t-101.5 -12.5t-108 19t-99.5 55t-77.5 97q8 10 22 24.5t30.5 30t32.5 31t29 28.5q12 -21 39.5 -52.5t60 -57t63.5 -36t50 11.5q9 10 1.5 20.5t-24.5 22t-40.5 23.5t-45.5 26
q-18 11 -41 27t-46.5 34t-45 37t-36.5 36q-44 49 -45 106t29 105t85 79t123 28q43 -2 86 -22t81 -48t68.5 -60t48.5 -58q-13 -8 -34 -22.5t-44.5 -31t-47.5 -32.5t-42 -26q-7 7 -18.5 21.5t-25 31.5t-29 34t-30 29t-27.5 15.5t-23 -5.5q-18 -17 -8 -36.5t32.5 -39t50 -37
t45.5 -30.5z" />
    <glyph glyph-name="T" unicode="T" horiz-adv-x="356" 
d="M481 540q-14 -1 -52.5 -3t-89.5 -4q-3 -45 -5.5 -97.5t-5.5 -105.5t-6 -104.5t-5 -95.5t-4 -78t-3 -52h-164q1 22 0.5 79.5t-2 132.5t-3.5 157.5t-3 154.5q-54 -2 -92 -3.5t-46 -2.5v177q13 1 48.5 1t82.5 0.5t100.5 0.5h102.5t88.5 -0.5t58.5 -1.5v-155z" />
    <glyph glyph-name="U" unicode="U" horiz-adv-x="530" 
d="M459 681q32 -185 26 -314t-40 -211t-89 -119t-121 -37q-68 0 -118.5 31t-79.5 109.5t-35.5 213.5t14.5 343h171q0 -2 -2.5 -26t-6 -62.5t-6.5 -87.5t-4 -99.5t2 -99t11 -86t22.5 -60.5t37.5 -23t37 22.5t22 59t10 83t1 95.5t-4.5 96t-7 84.5t-6.5 61t-3 25.5h40h46.5
t45.5 0.5t37 0.5z" />
    <glyph glyph-name="V" unicode="V" horiz-adv-x="530" 
d="M543 695q-1 -8 -7.5 -39t-17 -77t-23.5 -102.5t-26.5 -116t-27 -118t-24.5 -107.5t-19 -85t-11 -50h-238q-6 20 -18.5 67.5t-28 109.5t-32 132t-31 134t-25 116.5t-14.5 79.5q16 2 39 4.5t47.5 5t47.5 5t39 4.5q2 -18 8 -51.5t14.5 -75.5t17.5 -89t18.5 -91t17.5 -82
t13 -62q7 26 17 69.5t21 93.5t22 103t20.5 98.5t16.5 78.5t9 45h175z" />
    <glyph glyph-name="W" unicode="W" horiz-adv-x="645" 
d="M658 695q-1 -8 -7.5 -39t-16 -77t-21.5 -103t-24.5 -116.5t-25 -117.5t-23 -107t-18 -85t-10.5 -50h-160q-4 14 -11.5 43.5t-18.5 68.5q-8 -41 -15 -70t-10 -42h-165q-5 20 -16 67t-24.5 108.5t-28.5 130.5t-27.5 132.5t-22.5 115.5t-13 79q19 2 45 5.5t51.5 7.5t48.5 7
t38 5q2 -18 6 -52.5t9 -77.5t11 -91t11 -93t9.5 -83t7.5 -60q2 16 5 59t6 93t6 97t5 72h113q3 -17 5 -44.5t4 -60.5t3.5 -67.5t2.5 -64.5t2.5 -52.5t3.5 -31.5q4 25 12 68t17.5 94t20 105t19.5 100.5t15.5 80.5t8.5 46h172z" />
    <glyph glyph-name="X" unicode="X" horiz-adv-x="575" 
d="M389 0q-15 24 -44 70.5t-65 104.5q-12 -18 -27 -44.5t-29.5 -52.5t-26.5 -47t-17 -30h-179q4 8 23 42.5t44.5 83t55 104.5t56.5 106q-29 48 -56.5 92.5t-50 81.5t-39 63.5t-23.5 38.5q49 26 90 43t77 34q14 -26 38.5 -73t55.5 -106q29 57 54 105t40 81q38 -19 83.5 -44
t96.5 -54q-7 -12 -24.5 -40t-41 -65.5t-51.5 -82t-57 -90.5q29 -54 56.5 -105.5t50.5 -94.5t40.5 -74.5t26.5 -46.5h-157z" />
    <glyph glyph-name="Y" unicode="Y" horiz-adv-x="520" 
d="M462 696q29 -124 28 -214t-23.5 -152t-61 -98t-83.5 -51q3 -20 6.5 -43.5t6.5 -48t6 -47.5t6 -42q-17 0 -44 0.5t-56 0.5t-55.5 -0.5t-41.5 -0.5q4 38 9.5 83.5t13.5 96.5q-46 14 -84.5 50t-61.5 98t-26.5 153t20.5 216h183q0 -2 -7 -30t-14 -69t-11.5 -88.5t0.5 -88.5
t22 -68t54 -28q38 -1 55 26t20 67.5t-4.5 88t-17 89t-18 70.5t-8.5 31q18 0 43 -0.5t51 -0.5h51h42z" />
    <glyph glyph-name="Z" unicode="Z" horiz-adv-x="520" 
d="M204 173q44 2 89 4.5t84 4.5t69 3t44 1v-31t-0.5 -49t-0.5 -55.5v-50.5h-489q0 13 0.5 33.5t1 43.5t0.5 45.5v39.5q13 18 41 58t63.5 92t74.5 109.5t73 108.5q-42 -2 -83.5 -4t-76 -3.5t-58 -2.5t-29.5 -1v178h48.5t82.5 -0.5t99.5 -0.5t100.5 -0.5t85.5 -0.5h53.5
q0 -9 -0.5 -26t-0.5 -38.5t-0.5 -45t-0.5 -45.5q-9 -13 -37.5 -51.5t-67 -90t-82.5 -111t-84 -114.5z" />
    <glyph glyph-name="AE" unicode="&#xc6;" horiz-adv-x="811" 
d="M367 0q-3 14 -10.5 55t-18.5 97q-32 -3 -74 -7t-75 -6q-3 -13 -6 -34.5t-6 -42.5l-5.5 -38.5t-3.5 -23.5h-168q4 27 15 83.5t26 127t32 148t33 145.5t28.5 120t18.5 72h45.5t74 -0.5t73.5 -0.5h44v-2q18 1 49 1.5t68.5 1t78 0.5h78t69 -1t51.5 -3v-162q-10 0 -34.5 0.5
t-56.5 1t-69.5 1.5t-73.5 2q-3 -29 -6 -60.5t-6 -64.5q32 2 69.5 3t65.5 4q0 -12 -0.5 -38.5t-1 -56t-2 -55.5t-2.5 -35q-11 2 -28 4t-37.5 3.5l-41 3t-38.5 3.5q-2 -21 -4 -41.5t-4 -40.5q33 2 71 4t75 3.5t69 2t52 -0.5v-173h-45h-73h-87h-86h-70.5h-40.5h-12zM216 265
q25 -1 51 -1.5t50 -1.5q-7 35 -14 69t-13.5 64.5t-12.5 56l-10 42.5q-4 -18 -9.5 -43.5t-12.5 -56t-14.5 -63.5t-14.5 -66z" />
    <glyph glyph-name="OE" unicode="&#x152;" horiz-adv-x="807" 
d="M780 530q-10 0 -34.5 0.5t-56.5 1t-69.5 1.5t-73.5 2q-3 -29 -6 -60.5t-6 -64.5q32 2 69.5 3t65.5 4q0 -12 -0.5 -38.5t-1 -56t-2 -55.5t-2.5 -35q-11 2 -28 4t-37.5 3.5l-41 3t-38.5 3.5q-2 -21 -4 -41.5t-4 -40.5q33 2 71 4t75 3.5t69 2t52 -0.5v-173h-45h-73h-87h-86
h-70.5h-40.5h-12v23q-46 -25 -103 -23q-67 2 -116 30t-81 74.5t-47.5 108.5t-15.5 134t16.5 136t49 111.5t81 74.5t113.5 26q59 -1 104 -21v19q1 0 25.5 0.5t63 1t86 1t93.5 0.5t85.5 -1t62.5 -3v-162zM260 150q23 -1 42 13.5t32 40t20 59.5t7 73q0 38 -5.5 71.5t-17.5 59
t-31 40t-47 15.5q-25 0 -44 -14.5t-31.5 -40t-19 -59.5t-6.5 -72q0 -39 6 -72.5t18.5 -58t31.5 -39.5t45 -16z" />
    <glyph glyph-name="questiondown" unicode="&#xbf;" horiz-adv-x="461" 
d="M407.002 334.008q-9.99902 0 -27.498 -0.5t-36.498 -0.5t-36.998 0.5q-17.998 0.5 -27.998 0.5q-2 26.998 -5 62.4961q-2.99902 35.498 -5.99902 62.4961h34.998h42.4971t39.998 -0.5q18.498 -0.5 25.498 -0.5q0 -12.999 -0.5 -30.498t-1.5 -34.998t-1 -33.498v-24.998z
M193.016 -248.957q-60.9971 -3 -102.994 25.999q-41.9971 28.998 -59.4961 73.9951t-6.5 98.4941q10.999 53.4961 55.9971 100.494q37.9971 38.9971 76.4951 61.9961q38.4971 22.998 68.4961 46.4971q29.998 23.498 44.9971 54.4961t5.99902 85.9951q24.999 1 59.9971 0
q34.9971 -1 69.9951 0q5 -65.9961 -6.49902 -105.493q-11.5 -39.498 -31.998 -63.9961q-20.499 -24.499 -46.4971 -39.498q-25.999 -14.999 -49.9971 -31.998q-15.999 -10.999 -40.998 -31.498q-24.998 -20.499 -45.4971 -42.9971q-20.499 -22.499 -29.998 -43.998
q-9.5 -21.498 5.5 -36.4971q12.999 -11.999 36.4971 -8q23.499 4 47.4971 18.999q23.999 14.999 41.998 38.498q17.999 23.498 20.998 49.4971q32.998 -17.999 62.9961 -37.498q29.999 -19.499 52.9971 -34.498q-5 -22.999 -26.998 -53.4971
q-21.999 -30.498 -54.4971 -57.9961t-70.9951 -46.4971q-38.498 -18.999 -77.4951 -20.999z" />
    <glyph glyph-name="exclamdown" unicode="&#xa1;" horiz-adv-x="237" 
d="M167.002 254.01q-1 -16.999 -1 -54.4971v-84.9941t0.5 -100.494t1.5 -103.494t1.5 -92.4941t1.5 -67.9961h-151.991q1 13.999 2.5 50.4971t3.5 84.9951t4 103.993q2 55.4971 3.99902 106.994q2 51.4961 4.5 93.4941q2.5 41.9971 3.5 63.9961h125.992zM41.0098 287.008
v24.998t-1 33.498t-1.5 34.998t-0.5 30.498q8 0 25.998 0.5q17.999 0.5 39.498 0.5h42.4971h34.998q-3 -26.998 -5.99902 -62.4961q-3 -35.498 -5 -62.4961q-10 0 -27.998 -0.5q-17.999 -0.5 -36.998 -0.5t-36.498 0.5t-27.498 0.5z" />
    <glyph glyph-name="agrave" unicode="&#xe0;" horiz-adv-x="410" 
d="M179 506q58 5 95 -12.5t58.5 -52.5t30 -84t10 -107t-1 -122t-2.5 -128h-133q-1 4 -1 10v14q-36 -23 -78 -28.5t-78.5 8t-62 48t-28.5 92.5q-2 59 24.5 91.5t66.5 42.5t85.5 1t81.5 -32q0 13 0.5 24t-0.5 19q-1 34 -16.5 53t-33.5 21.5t-31.5 -13.5t-9.5 -53
q-9 0 -26.5 -0.5t-36.5 -1t-37 -1t-30 -0.5q-2 28 4.5 63t24.5 66.5t48 54.5t77 27zM228 110q7 9 7 18t-5 15q-11 13 -32 21t-41 7t-35 -12.5t-13 -35.5q1 -20 16 -30t34.5 -11.5t39 6t29.5 22.5zM145 651q8 -6 28 -17.5t42.5 -23.5t41.5 -21.5t25 -11.5q-4 -15 -7.5 -34.5
t-4.5 -24.5q-7 1 -26.5 5t-42 9t-43.5 9.5t-31 6.5q3 21 8 49.5t10 53.5z" />
    <glyph glyph-name="aacute" unicode="&#xe1;" horiz-adv-x="410" 
d="M179 506q58 5 95 -12.5t58.5 -52.5t30 -84t10 -107t-1 -122t-2.5 -128h-133q-1 4 -1 10v14q-36 -23 -78 -28.5t-78.5 8t-62 48t-28.5 92.5q-2 59 24.5 91.5t66.5 42.5t85.5 1t81.5 -32q0 13 0.5 24t-0.5 19q-1 34 -16.5 53t-33.5 21.5t-31.5 -13.5t-9.5 -53
q-9 0 -26.5 -0.5t-36.5 -1t-37 -1t-30 -0.5q-2 28 4.5 63t24.5 66.5t48 54.5t77 27zM228 110q7 9 7 18t-5 15q-11 13 -32 21t-41 7t-35 -12.5t-13 -35.5q1 -20 16 -30t34.5 -11.5t39 6t29.5 22.5zM264 651q5 -25 10 -53.5t8 -49.5q-10 -2 -31 -6.5t-43.5 -9.5t-42 -9
t-26.5 -5q-1 5 -4.5 24.5t-7.5 34.5q6 2 25 11.5t41.5 21.5t42.5 23.5t28 17.5z" />
    <glyph glyph-name="acircumflex" unicode="&#xe2;" horiz-adv-x="410" 
d="M179 506q58 5 95 -12.5t58.5 -52.5t30 -84t10 -107t-1 -122t-2.5 -128h-133q-1 4 -1 10v14q-36 -23 -78 -28.5t-78.5 8t-62 48t-28.5 92.5q-2 59 24.5 91.5t66.5 42.5t85.5 1t81.5 -32q0 13 0.5 24t-0.5 19q-1 34 -16.5 53t-33.5 21.5t-31.5 -13.5t-9.5 -53
q-9 0 -26.5 -0.5t-36.5 -1t-37 -1t-30 -0.5q-2 28 4.5 63t24.5 66.5t48 54.5t77 27zM228 110q7 9 7 18t-5 15q-11 13 -32 21t-41 7t-35 -12.5t-13 -35.5q1 -20 16 -30t34.5 -11.5t39 6t29.5 22.5zM300 566q-10 -12 -21 -28.5t-14 -20.5q-6 4 -23 16.5t-37 26.5
q-20 -14 -37.5 -26.5t-22.5 -16.5q-3 4 -14.5 20.5t-21.5 28.5q5 4 18.5 20.5t29 36.5t29 38.5t18.5 27.5l1 -1v1q5 -9 18.5 -27.5t29 -38.5t29 -36.5t18.5 -20.5z" />
    <glyph glyph-name="atilde" unicode="&#xe3;" horiz-adv-x="410" 
d="M179 506q58 5 95 -12.5t58.5 -52.5t30 -84t10 -107t-1 -122t-2.5 -128h-133q-1 4 -1 10v14q-36 -23 -78 -28.5t-78.5 8t-62 48t-28.5 92.5q-2 59 24.5 91.5t66.5 42.5t85.5 1t81.5 -32q0 13 0.5 24t-0.5 19q-1 34 -16.5 53t-33.5 21.5t-31.5 -13.5t-9.5 -53
q-9 0 -26.5 -0.5t-36.5 -1t-37 -1t-30 -0.5q-2 28 4.5 63t24.5 66.5t48 54.5t77 27zM228 110q7 9 7 18t-5 15q-11 13 -32 21t-41 7t-35 -12.5t-13 -35.5q1 -20 16 -30t34.5 -11.5t39 6t29.5 22.5zM293 630q4 -7 8.5 -18t9 -22.5t8.5 -21t7 -13.5q-18 -16 -36.5 -25t-35 -12
t-30 0t-21.5 11t-19.5 13t-24 5t-24 -4.5t-18.5 -14.5q-3 5 -6.5 14.5t-8 20l-9 21t-9.5 18.5q9 18 26 27.5t35.5 11.5t36 -2.5t29.5 -13.5q20 -15 40 -16.5t42 21.5z" />
    <glyph glyph-name="adieresis" unicode="&#xe4;" horiz-adv-x="410" 
d="M179 506q58 5 95 -12.5t58.5 -52.5t30 -84t10 -107t-1 -122t-2.5 -128h-133q-1 4 -1 10v14q-36 -23 -78 -28.5t-78.5 8t-62 48t-28.5 92.5q-2 59 24.5 91.5t66.5 42.5t85.5 1t81.5 -32q0 13 0.5 24t-0.5 19q-1 34 -16.5 53t-33.5 21.5t-31.5 -13.5t-9.5 -53
q-9 0 -26.5 -0.5t-36.5 -1t-37 -1t-30 -0.5q-2 28 4.5 63t24.5 66.5t48 54.5t77 27zM228 110q7 9 7 18t-5 15q-11 13 -32 21t-41 7t-35 -12.5t-13 -35.5q1 -20 16 -30t34.5 -11.5t39 6t29.5 22.5zM90 643q5 -1 19 -1t31 -0.5t33.5 -0.5t26.5 -1q1 -9 1 -24v-32t-0.5 -34
t-0.5 -31q-8 -1 -22 -1t-29 0.5t-28 1t-19 2.5q0 9 -1.5 24t-3.5 32l-4 34t-3 31zM214 636q10 1 26 1t33 0.5t31 0.5t19 1q-1 -14 -2.5 -31t-3.5 -34t-3.5 -32t-1.5 -24q-6 -2 -19.5 -3t-28.5 -1.5t-29 0t-22 1.5q0 14 -0.5 31t-0.5 34t0.5 32t1.5 24z" />
    <glyph glyph-name="aring" unicode="&#xe5;" horiz-adv-x="410" 
d="M205 644q31 0 52.5 -15.5t21.5 -47.5q0 -26 -21.5 -44t-52.5 -18t-53 15t-21 47q1 26 22 44.5t52 18.5zM205 564q9 0 15.5 3t6.5 14q-2 16 -22 19q-10 2 -15.5 -5t-5.5 -14q0 -11 7 -14t14 -3zM179 506q58 5 95 -12.5t58.5 -52.5t30 -84t10 -107t-1 -122t-2.5 -128h-133
q-1 4 -1 10v14q-36 -23 -78 -28.5t-78.5 8t-62 48t-28.5 92.5q-2 59 24.5 91.5t66.5 42.5t85.5 1t81.5 -32q0 13 0.5 24t-0.5 19q-1 34 -16.5 53t-33.5 21.5t-31.5 -13.5t-9.5 -53q-9 0 -26.5 -0.5t-36.5 -1t-37 -1t-30 -0.5q-2 28 4.5 63t24.5 66.5t48 54.5t77 27zM228 110
q7 9 7 18t-5 15q-11 13 -32 21t-41 7t-35 -12.5t-13 -35.5q1 -20 16 -30t34.5 -11.5t39 6t29.5 22.5z" />
    <glyph glyph-name="egrave" unicode="&#xe8;" 
d="M342 213l13.5 -27l14.5 -29t12.5 -26t8.5 -19q-11 -22 -31 -44t-47.5 -38.5t-61.5 -25t-73 -3.5q-48 6 -87.5 35.5t-63 77t-28 110.5t17.5 136q12 37 33 65t48 46t57.5 25.5t59.5 4.5q73 -7 109 -54.5t36 -120.5q0 -36 -13 -68t-35.5 -56t-54 -38t-67.5 -14
q-15 0 -29.5 2.5t-28.5 7.5q22 -32 54.5 -40.5t64 0.5t57 33.5t34.5 59.5zM194 365q-25 -2 -44 -18.5t-17 -48.5q2 -30 21.5 -43t45.5 -12q29 1 49 20t16 54q-3 29 -24.5 39.5t-46.5 8.5zM150 651q8 -6 28 -17.5t42.5 -23.5t41.5 -21.5t25 -11.5q-4 -15 -7.5 -34.5
t-4.5 -24.5q-7 1 -26.5 5t-42 9t-43.5 9.5t-31 6.5q3 21 8 49.5t10 53.5z" />
    <glyph glyph-name="eacute" unicode="&#xe9;" 
d="M342 213l13.5 -27l14.5 -29t12.5 -26t8.5 -19q-11 -22 -31 -44t-47.5 -38.5t-61.5 -25t-73 -3.5q-48 6 -87.5 35.5t-63 77t-28 110.5t17.5 136q12 37 33 65t48 46t57.5 25.5t59.5 4.5q73 -7 109 -54.5t36 -120.5q0 -36 -13 -68t-35.5 -56t-54 -38t-67.5 -14
q-15 0 -29.5 2.5t-28.5 7.5q22 -32 54.5 -40.5t64 0.5t57 33.5t34.5 59.5zM194 365q-25 -2 -44 -18.5t-17 -48.5q2 -30 21.5 -43t45.5 -12q29 1 49 20t16 54q-3 29 -24.5 39.5t-46.5 8.5zM269 651q5 -25 10 -53.5t8 -49.5q-10 -2 -31 -6.5t-43.5 -9.5t-42 -9t-26.5 -5
q-1 5 -4.5 24.5t-7.5 34.5q6 2 25 11.5t41.5 21.5t42.5 23.5t28 17.5z" />
    <glyph glyph-name="ecircumflex" unicode="&#xea;" 
d="M342 213l13.5 -27l14.5 -29t12.5 -26t8.5 -19q-11 -22 -31 -44t-47.5 -38.5t-61.5 -25t-73 -3.5q-48 6 -87.5 35.5t-63 77t-28 110.5t17.5 136q12 37 33 65t48 46t57.5 25.5t59.5 4.5q73 -7 109 -54.5t36 -120.5q0 -36 -13 -68t-35.5 -56t-54 -38t-67.5 -14
q-15 0 -29.5 2.5t-28.5 7.5q22 -32 54.5 -40.5t64 0.5t57 33.5t34.5 59.5zM194 365q-25 -2 -44 -18.5t-17 -48.5q2 -30 21.5 -43t45.5 -12q29 1 49 20t16 54q-3 29 -24.5 39.5t-46.5 8.5zM305 566q-10 -12 -21 -28.5t-14 -20.5q-6 4 -23 16.5t-37 26.5q-20 -14 -37.5 -26.5
t-22.5 -16.5q-3 4 -14.5 20.5t-21.5 28.5q5 4 18.5 20.5t29 36.5t29 38.5t18.5 27.5l1 -1v1q5 -9 18.5 -27.5t29 -38.5t29 -36.5t18.5 -20.5z" />
    <glyph glyph-name="edieresis" unicode="&#xeb;" 
d="M342 213l13.5 -27l14.5 -29t12.5 -26t8.5 -19q-11 -22 -31 -44t-47.5 -38.5t-61.5 -25t-73 -3.5q-48 6 -87.5 35.5t-63 77t-28 110.5t17.5 136q12 37 33 65t48 46t57.5 25.5t59.5 4.5q73 -7 109 -54.5t36 -120.5q0 -36 -13 -68t-35.5 -56t-54 -38t-67.5 -14
q-15 0 -29.5 2.5t-28.5 7.5q22 -32 54.5 -40.5t64 0.5t57 33.5t34.5 59.5zM194 365q-25 -2 -44 -18.5t-17 -48.5q2 -30 21.5 -43t45.5 -12q29 1 49 20t16 54q-3 29 -24.5 39.5t-46.5 8.5zM93 643q5 -1 19 -1t31 -0.5t33.5 -0.5t26.5 -1q1 -9 1 -24v-32t-0.5 -34t-0.5 -31
q-8 -1 -22 -1t-29 0.5t-28 1t-19 2.5q0 9 -1.5 24t-3.5 32l-4 34t-3 31zM217 636q10 1 26 1t33 0.5t31 0.5t19 1q-1 -14 -2.5 -31t-3.5 -34t-3.5 -32t-1.5 -24q-6 -2 -19.5 -3t-28.5 -1.5t-29 0t-22 1.5q0 14 -0.5 31t-0.5 34t0.5 32t1.5 24z" />
    <glyph glyph-name="igrave" unicode="&#xec;" horiz-adv-x="191" 
d="M6 418h32h45h44h30q-1 -8 -2.5 -38.5t-4 -72.5t-5.5 -90t-5.5 -92t-4.5 -78t-3 -47h-113q0 16 -1 50t-2.5 76.5t-3 89t-3 88t-2.5 72t-1 42.5zM15 579q8 -6 28 -17.5t42.5 -23.5t41.5 -21.5t25 -11.5q-4 -15 -7.5 -34.5t-4.5 -24.5q-7 1 -26.5 5t-42 9t-43.5 9.5t-31 6.5
q3 21 8 49.5t10 53.5z" />
    <glyph glyph-name="iacute" unicode="&#xed;" horiz-adv-x="191" 
d="M6 418q0 -12 1 -42.5t2.5 -72t3 -88t3 -89t2.5 -76.5t1 -50h113q1 13 3 47t4.5 78t5.5 92t5.5 90t4 72.5t2.5 38.5h-30h-44h-45h-32zM136 579q5 -25 10 -53.5t8 -49.5q-10 -2 -31 -6.5t-43.5 -9.5t-42 -9t-26.5 -5q-1 5 -4.5 24.5t-7.5 34.5q6 2 25 11.5t41.5 21.5
t42.5 23.5t28 17.5z" />
    <glyph glyph-name="icircumflex" unicode="&#xee;" horiz-adv-x="191" 
d="M6 418h32h45h44h30q-1 -8 -2.5 -38.5t-4 -72.5t-5.5 -90t-5.5 -92t-4.5 -78t-3 -47h-113q0 16 -1 50t-2.5 76.5t-3 89t-3 88t-2.5 72t-1 42.5zM176 492q-10 -12 -21 -28.5t-14 -20.5q-6 4 -23 16.5t-37 26.5q-20 -14 -37.5 -26.5t-22.5 -16.5q-3 4 -14.5 20.5t-21.5 28.5
q5 4 18.5 20.5t29 36.5t29 38.5t18.5 27.5l1 -1v1q5 -9 18.5 -27.5t29 -38.5t29 -36.5t18.5 -20.5z" />
    <glyph glyph-name="idieresis" unicode="&#xef;" horiz-adv-x="191" 
d="M6 418h32h45h44h30q-1 -8 -2.5 -38.5t-4 -72.5t-5.5 -90t-5.5 -92t-4.5 -78t-3 -47h-113q0 16 -1 50t-2.5 76.5t-3 89t-3 88t-2.5 72t-1 42.5zM-38 572q5 -1 19 -1t31 -0.5t33.5 -0.5t26.5 -1q1 -9 1 -24v-32t-0.5 -34t-0.5 -31q-8 -1 -22 -1t-29 0.5t-28 1t-19 2.5
q0 9 -1.5 24t-3.5 32l-4 34t-3 31zM86 565q10 1 26 1t33 0.5t31 0.5t19 1q-1 -14 -2.5 -31t-3.5 -34t-3.5 -32t-1.5 -24q-6 -2 -19.5 -3t-28.5 -1.5t-29 0t-22 1.5q0 14 -0.5 31t-0.5 34t0.5 32t1.5 24z" />
    <glyph glyph-name="ntilde" unicode="&#xf1;" horiz-adv-x="437" 
d="M389 369q8 -42 9 -93t-3 -102t-11.5 -97t-15.5 -77h-154q5 23 12 55.5t12.5 68t8.5 70.5t1 62.5t-11.5 44.5t-27.5 17q-22 -1 -40.5 -28.5t-27.5 -61.5q-3 -41 -5.5 -79.5t-5 -69.5t-4 -52t-1.5 -27h-125v502h161q-2 -13 -5 -69q29 43 65 59.5t69.5 7.5t60.5 -42t38 -89z
M306 630q4 -7 8.5 -18t9 -22.5t8.5 -21t7 -13.5q-18 -16 -36.5 -25t-35 -12t-30 0t-21.5 11t-19.5 13t-24 5t-24 -4.5t-18.5 -14.5q-3 5 -6.5 14.5t-8 20l-9 21t-9.5 18.5q9 18 26 27.5t35.5 11.5t36 -2.5t29.5 -13.5q20 -15 40 -16.5t42 21.5z" />
    <glyph glyph-name="ograve" unicode="&#xf2;" 
d="M191 506q53 -1 89.5 -21t59.5 -54.5t33 -80t10 -97.5q0 -53 -13.5 -99.5t-38.5 -81t-60.5 -54.5t-79.5 -18q-49 1 -85 21.5t-59.5 54t-35 79t-11.5 98.5q0 52 12 98.5t36 81t60 54.5t83 19zM258 199q8 44 -1.5 73t-44.5 40q-32 11 -53.5 -9.5t-30.5 -64.5q-8 -43 2 -74.5
t43 -43.5q29 -10 52.5 13t32.5 66zM150 651q8 -6 28 -17.5t42.5 -23.5t41.5 -21.5t25 -11.5q-4 -15 -7.5 -34.5t-4.5 -24.5q-7 1 -26.5 5t-42 9t-43.5 9.5t-31 6.5q3 21 8 49.5t10 53.5z" />
    <glyph glyph-name="oacute" unicode="&#xf3;" 
d="M191 506q53 -1 89.5 -21t59.5 -54.5t33 -80t10 -97.5q0 -53 -13.5 -99.5t-38.5 -81t-60.5 -54.5t-79.5 -18q-49 1 -85 21.5t-59.5 54t-35 79t-11.5 98.5q0 52 12 98.5t36 81t60 54.5t83 19zM258 199q8 44 -1.5 73t-44.5 40q-32 11 -53.5 -9.5t-30.5 -64.5q-8 -43 2 -74.5
t43 -43.5q29 -10 52.5 13t32.5 66zM269 651q5 -25 10 -53.5t8 -49.5q-10 -2 -31 -6.5t-43.5 -9.5t-42 -9t-26.5 -5q-1 5 -4.5 24.5t-7.5 34.5q6 2 25 11.5t41.5 21.5t42.5 23.5t28 17.5z" />
    <glyph glyph-name="ocircumflex" unicode="&#xf4;" 
d="M191 506q53 -1 89.5 -21t59.5 -54.5t33 -80t10 -97.5q0 -53 -13.5 -99.5t-38.5 -81t-60.5 -54.5t-79.5 -18q-49 1 -85 21.5t-59.5 54t-35 79t-11.5 98.5q0 52 12 98.5t36 81t60 54.5t83 19zM258 199q8 44 -1.5 73t-44.5 40q-32 11 -53.5 -9.5t-30.5 -64.5q-8 -43 2 -74.5
t43 -43.5q29 -10 52.5 13t32.5 66zM305 566q-10 -12 -21 -28.5t-14 -20.5q-6 4 -23 16.5t-37 26.5q-20 -14 -37.5 -26.5t-22.5 -16.5q-3 4 -14.5 20.5t-21.5 28.5q5 4 18.5 20.5t29 36.5t29 38.5t18.5 27.5l1 -1v1q5 -9 18.5 -27.5t29 -38.5t29 -36.5t18.5 -20.5z" />
    <glyph glyph-name="otilde" unicode="&#xf5;" 
d="M191 506q53 -1 89.5 -21t59.5 -54.5t33 -80t10 -97.5q0 -53 -13.5 -99.5t-38.5 -81t-60.5 -54.5t-79.5 -18q-49 1 -85 21.5t-59.5 54t-35 79t-11.5 98.5q0 52 12 98.5t36 81t60 54.5t83 19zM258 199q8 44 -1.5 73t-44.5 40q-32 11 -53.5 -9.5t-30.5 -64.5q-8 -43 2 -74.5
t43 -43.5q29 -10 52.5 13t32.5 66zM297 630q4 -7 8.5 -18t9 -22.5t8.5 -21t7 -13.5q-18 -16 -36.5 -25t-35 -12t-30 0t-21.5 11t-19.5 13t-24 5t-24 -4.5t-18.5 -14.5q-3 5 -6.5 14.5t-8 20l-9 21t-9.5 18.5q9 18 26 27.5t35.5 11.5t36 -2.5t29.5 -13.5q20 -15 40 -16.5
t42 21.5z" />
    <glyph glyph-name="odieresis" unicode="&#xf6;" 
d="M191 506q53 -1 89.5 -21t59.5 -54.5t33 -80t10 -97.5q0 -53 -13.5 -99.5t-38.5 -81t-60.5 -54.5t-79.5 -18q-49 1 -85 21.5t-59.5 54t-35 79t-11.5 98.5q0 52 12 98.5t36 81t60 54.5t83 19zM258 199q8 44 -1.5 73t-44.5 40q-32 11 -53.5 -9.5t-30.5 -64.5q-8 -43 2 -74.5
t43 -43.5q29 -10 52.5 13t32.5 66zM93 643q5 -1 19 -1t31 -0.5t33.5 -0.5t26.5 -1q1 -9 1 -24v-32t-0.5 -34t-0.5 -31q-8 -1 -22 -1t-29 0.5t-28 1t-19 2.5q0 9 -1.5 24t-3.5 32l-4 34t-3 31zM217 636q10 1 26 1t33 0.5t31 0.5t19 1q-1 -14 -2.5 -31t-3.5 -34t-3.5 -32
t-1.5 -24q-6 -2 -19.5 -3t-28.5 -1.5t-29 0t-22 1.5q0 14 -0.5 31t-0.5 34t0.5 32t1.5 24z" />
    <glyph glyph-name="ugrave" unicode="&#xf9;" horiz-adv-x="453" 
d="M414 503q0 -9 -2.5 -47t-5.5 -91.5t-6 -114t-6 -113t-5.5 -90.5t-2.5 -46h-120v87q-21 -47 -57.5 -69.5t-75 -17t-72 39.5t-48.5 100q-9 43 -10 93t3.5 99t12 93.5t14.5 76.5h143q-11 -41 -20 -85t-14 -86.5t-5.5 -80t5 -66.5t18.5 -46t34 -17q14 0 26 11t21 29.5t15 42
t9 47.5q0 44 -0.5 86t-1 76.5t-0.5 58.5v30h151zM167 651q8 -6 28 -17.5t42.5 -23.5t41.5 -21.5t25 -11.5q-4 -15 -7.5 -34.5t-4.5 -24.5q-7 1 -26.5 5t-42 9t-43.5 9.5t-31 6.5q3 21 8 49.5t10 53.5z" />
    <glyph glyph-name="uacute" unicode="&#xfa;" horiz-adv-x="453" 
d="M414 503q0 -9 -2.5 -47t-5.5 -91.5t-6 -114t-6 -113t-5.5 -90.5t-2.5 -46h-120v87q-21 -47 -57.5 -69.5t-75 -17t-72 39.5t-48.5 100q-9 43 -10 93t3.5 99t12 93.5t14.5 76.5h143q-11 -41 -20 -85t-14 -86.5t-5.5 -80t5 -66.5t18.5 -46t34 -17q14 0 26 11t21 29.5t15 42
t9 47.5q0 44 -0.5 86t-1 76.5t-0.5 58.5v30h151zM286 651q5 -25 10 -53.5t8 -49.5q-10 -2 -31 -6.5t-43.5 -9.5t-42 -9t-26.5 -5q-1 5 -4.5 24.5t-7.5 34.5q6 2 25 11.5t41.5 21.5t42.5 23.5t28 17.5z" />
    <glyph glyph-name="ucircumflex" unicode="&#xfb;" horiz-adv-x="453" 
d="M414 503q0 -9 -2.5 -47t-5.5 -91.5t-6 -114t-6 -113t-5.5 -90.5t-2.5 -46h-120v87q-21 -47 -57.5 -69.5t-75 -17t-72 39.5t-48.5 100q-9 43 -10 93t3.5 99t12 93.5t14.5 76.5h143q-11 -41 -20 -85t-14 -86.5t-5.5 -80t5 -66.5t18.5 -46t34 -17q14 0 26 11t21 29.5t15 42
t9 47.5q0 44 -0.5 86t-1 76.5t-0.5 58.5v30h151zM322 566q-10 -12 -21 -28.5t-14 -20.5q-6 4 -23 16.5t-37 26.5q-20 -14 -37.5 -26.5t-22.5 -16.5q-3 4 -14.5 20.5t-21.5 28.5q5 4 18.5 20.5t29 36.5t29 38.5t18.5 27.5l1 -1v1q5 -9 18.5 -27.5t29 -38.5t29 -36.5
t18.5 -20.5z" />
    <glyph glyph-name="udieresis" unicode="&#xfc;" horiz-adv-x="453" 
d="M414 503q0 -9 -2.5 -47t-5.5 -91.5t-6 -114t-6 -113t-5.5 -90.5t-2.5 -46h-120v87q-21 -47 -57.5 -69.5t-75 -17t-72 39.5t-48.5 100q-9 43 -10 93t3.5 99t12 93.5t14.5 76.5h143q-11 -41 -20 -85t-14 -86.5t-5.5 -80t5 -66.5t18.5 -46t34 -17q14 0 26 11t21 29.5t15 42
t9 47.5q0 44 -0.5 86t-1 76.5t-0.5 58.5v30h151zM110 643q5 -1 19 -1t31 -0.5t33.5 -0.5t26.5 -1q1 -9 1 -24v-32t-0.5 -34t-0.5 -31q-8 -1 -22 -1t-29 0.5t-28 1t-19 2.5q0 9 -1.5 24t-3.5 32l-4 34t-3 31zM234 636q10 1 26 1t33 0.5t31 0.5t19 1q-1 -14 -2.5 -31t-3.5 -34
t-3.5 -32t-1.5 -24q-6 -2 -19.5 -3t-28.5 -1.5t-29 0t-22 1.5q0 14 -0.5 31t-0.5 34t0.5 32t1.5 24z" />
    <glyph glyph-name="yacute" unicode="&#xfd;" horiz-adv-x="437" 
d="M274 502q12 0 31.5 -0.5t40.5 -0.5t40 0.5t29 1.5q-1 -15 -3.5 -58.5t-6 -99t-7.5 -112.5t-7 -99q-8 -99 -19.5 -175t-35.5 -127.5t-65.5 -78.5t-110.5 -27q-35 0 -67 13.5t-57 41t-40.5 68.5t-18.5 95q9 1 25.5 2t35.5 2l38 2t33 2q-2 -12 0.5 -28.5t10.5 -31.5
t22 -25.5t34 -10.5q23 0 37 17t22 45.5t11.5 67t5.5 81.5q-23 -39 -58.5 -56t-71.5 -9t-67 41.5t-45 96.5q-9 43 -10 93t3.5 99t12 93t14.5 76h143q-11 -41 -20 -85t-14 -86t-5.5 -79.5t5 -66.5t18.5 -46t34 -17q13 -1 24.5 9t20.5 27t15.5 39t9.5 45l4 78t3.5 73.5t3 63
t2.5 46.5zM278 651q5 -25 10 -53.5t8 -49.5q-10 -2 -31 -6.5t-43.5 -9.5t-42 -9t-26.5 -5q-1 5 -4.5 24.5t-7.5 34.5q6 2 25 11.5t41.5 21.5t42.5 23.5t28 17.5z" />
    <glyph glyph-name="ydieresis" unicode="&#xff;" horiz-adv-x="437" 
d="M274 502q12 0 31.5 -0.5t40.5 -0.5t40 0.5t29 1.5q-1 -15 -3.5 -58.5t-6 -99t-7.5 -112.5t-7 -99q-8 -99 -19.5 -175t-35.5 -127.5t-65.5 -78.5t-110.5 -27q-35 0 -67 13.5t-57 41t-40.5 68.5t-18.5 95q9 1 25.5 2t35.5 2l38 2t33 2q-2 -12 0.5 -28.5t10.5 -31.5
t22 -25.5t34 -10.5q23 0 37 17t22 45.5t11.5 67t5.5 81.5q-23 -39 -58.5 -56t-71.5 -9t-67 41.5t-45 96.5q-9 43 -10 93t3.5 99t12 93t14.5 76h143q-11 -41 -20 -85t-14 -86t-5.5 -79.5t5 -66.5t18.5 -46t34 -17q13 -1 24.5 9t20.5 27t15.5 39t9.5 45l4 78t3.5 73.5t3 63
t2.5 46.5zM102 643q5 -1 19 -1t31 -0.5t33.5 -0.5t26.5 -1q1 -9 1 -24v-32t-0.5 -34t-0.5 -31q-8 -1 -22 -1t-29 0.5t-28 1t-19 2.5q0 9 -1.5 24t-3.5 32l-4 34t-3 31zM226 636q10 1 26 1t33 0.5t31 0.5t19 1q-1 -14 -2.5 -31t-3.5 -34t-3.5 -32t-1.5 -24q-6 -2 -19.5 -3
t-28.5 -1.5t-29 0t-22 1.5q0 14 -0.5 31t-0.5 34t0.5 32t1.5 24z" />
    <glyph glyph-name="Agrave" unicode="&#xc0;" horiz-adv-x="577" 
d="M373 -53q-2 7 -5.5 29.5t-8.5 52t-10.5 62.5t-10.5 61q-32 -3 -74 -7t-75 -6q-3 -13 -6 -34.5t-6 -42.5l-5.5 -38.5t-3.5 -23.5h-168q4 27 15 83.5t26 127t32 148t33 145.5t28.5 120t18.5 72h45.5t74 -0.5t73.5 -0.5h44q3 -14 11.5 -52.5t20 -91t25.5 -115.5t28 -127.5
t27.5 -126t24 -111t17.5 -83t8 -41.5h-179zM216 265q25 -1 51 -1.5t50 -1.5q-7 35 -14 69t-13.5 64.5t-12.5 56l-10 42.5q-4 -18 -9.5 -43.5t-12.5 -56t-14.5 -63.5t-14.5 -66zM229 862q8 -6 28 -17.5t42.5 -23.5t41.5 -21.5t25 -11.5q-4 -15 -7.5 -34.5t-4.5 -24.5
q-7 1 -26.5 5t-42 9t-43.5 9.5t-31 6.5q3 21 8 49.5t10 53.5z" />
    <glyph glyph-name="Aacute" unicode="&#xc1;" horiz-adv-x="577" 
d="M373 -53q-2 7 -5.5 29.5t-8.5 52t-10.5 62.5t-10.5 61q-32 -3 -74 -7t-75 -6q-3 -13 -6 -34.5t-6 -42.5l-5.5 -38.5t-3.5 -23.5h-168q4 27 15 83.5t26 127t32 148t33 145.5t28.5 120t18.5 72h45.5t74 -0.5t73.5 -0.5h44q3 -14 11.5 -52.5t20 -91t25.5 -115.5t28 -127.5
t27.5 -126t24 -111t17.5 -83t8 -41.5h-179zM216 265q25 -1 51 -1.5t50 -1.5q-7 35 -14 69t-13.5 64.5t-12.5 56l-10 42.5q-4 -18 -9.5 -43.5t-12.5 -56t-14.5 -63.5t-14.5 -66zM348 862q5 -25 10 -53.5t8 -49.5q-10 -2 -31 -6.5t-43.5 -9.5t-42 -9t-26.5 -5q-1 5 -4.5 24.5
t-7.5 34.5q6 2 25 11.5t41.5 21.5t42.5 23.5t28 17.5z" />
    <glyph glyph-name="Acircumflex" unicode="&#xc2;" horiz-adv-x="577" 
d="M373 -53q-2 7 -5.5 29.5t-8.5 52t-10.5 62.5t-10.5 61q-32 -3 -74 -7t-75 -6q-3 -13 -6 -34.5t-6 -42.5l-5.5 -38.5t-3.5 -23.5h-168q4 27 15 83.5t26 127t32 148t33 145.5t28.5 120t18.5 72h45.5t74 -0.5t73.5 -0.5h44q3 -14 11.5 -52.5t20 -91t25.5 -115.5t28 -127.5
t27.5 -126t24 -111t17.5 -83t8 -41.5h-179zM216 265q25 -1 51 -1.5t50 -1.5q-7 35 -14 69t-13.5 64.5t-12.5 56l-10 42.5q-4 -18 -9.5 -43.5t-12.5 -56t-14.5 -63.5t-14.5 -66zM384 777q-10 -12 -21 -28.5t-14 -20.5q-6 4 -23 16.5t-37 26.5q-20 -14 -37.5 -26.5
t-22.5 -16.5q-3 4 -14.5 20.5t-21.5 28.5q5 4 18.5 20.5t29 36.5t29 38.5t18.5 27.5l1 -1v1q5 -9 18.5 -27.5t29 -38.5t29 -36.5t18.5 -20.5z" />
    <glyph glyph-name="Atilde" unicode="&#xc3;" horiz-adv-x="577" 
d="M373 -53q-2 7 -5.5 29.5t-8.5 52t-10.5 62.5t-10.5 61q-32 -3 -74 -7t-75 -6q-3 -13 -6 -34.5t-6 -42.5l-5.5 -38.5t-3.5 -23.5h-168q4 27 15 83.5t26 127t32 148t33 145.5t28.5 120t18.5 72h45.5t74 -0.5t73.5 -0.5h44q3 -14 11.5 -52.5t20 -91t25.5 -115.5t28 -127.5
t27.5 -126t24 -111t17.5 -83t8 -41.5h-179zM216 265q25 -1 51 -1.5t50 -1.5q-7 35 -14 69t-13.5 64.5t-12.5 56l-10 42.5q-4 -18 -9.5 -43.5t-12.5 -56t-14.5 -63.5t-14.5 -66zM376 841q4 -7 8.5 -18t9 -22.5t8.5 -21t7 -13.5q-18 -16 -36.5 -25t-35 -12t-30 0t-21.5 11
t-19.5 13t-24 5t-24 -4.5t-18.5 -14.5q-3 5 -6.5 14.5t-8 20l-9 21t-9.5 18.5q9 18 26 27.5t35.5 11.5t36 -2.5t29.5 -13.5q20 -15 40 -16.5t42 21.5z" />
    <glyph glyph-name="Adieresis" unicode="&#xc4;" horiz-adv-x="577" 
d="M373 -53q-2 7 -5.5 29.5t-8.5 52t-10.5 62.5t-10.5 61q-32 -3 -74 -7t-75 -6q-3 -13 -6 -34.5t-6 -42.5l-5.5 -38.5t-3.5 -23.5h-168q4 27 15 83.5t26 127t32 148t33 145.5t28.5 120t18.5 72h45.5t74 -0.5t73.5 -0.5h44q3 -14 11.5 -52.5t20 -91t25.5 -115.5t28 -127.5
t27.5 -126t24 -111t17.5 -83t8 -41.5h-179zM216 265q25 -1 51 -1.5t50 -1.5q-7 35 -14 69t-13.5 64.5t-12.5 56l-10 42.5q-4 -18 -9.5 -43.5t-12.5 -56t-14.5 -63.5t-14.5 -66zM172 854q5 -1 19 -1t31 -0.5t33.5 -0.5t26.5 -1q1 -9 1 -24v-32t-0.5 -34t-0.5 -31
q-8 -1 -22 -1t-29 0.5t-28 1t-19 2.5q0 9 -1.5 24t-3.5 32l-4 34t-3 31zM296 847q10 1 26 1t33 0.5t31 0.5t19 1q-1 -14 -2.5 -31t-3.5 -34t-3.5 -32t-1.5 -24q-6 -2 -19.5 -3t-28.5 -1.5t-29 0t-22 1.5q0 14 -0.5 31t-0.5 34t0.5 32t1.5 24z" />
    <glyph glyph-name="Aring" unicode="&#xc5;" horiz-adv-x="577" 
d="M289 855q31 0 52.5 -15.5t21.5 -47.5q0 -26 -21.5 -44t-52.5 -18t-53 15t-21 47q1 26 22 44.5t52 18.5zM289 775q9 0 15.5 3t6.5 14q-2 16 -22 19q-10 2 -15.5 -5t-5.5 -14q0 -11 7 -14t14 -3zM373 -53q-2 7 -5.5 29.5t-8.5 52t-10.5 62.5t-10.5 61q-32 -3 -74 -7t-75 -6
q-3 -13 -6 -34.5t-6 -42.5l-5.5 -38.5t-3.5 -23.5h-168q4 27 15 83.5t26 127t32 148t33 145.5t28.5 120t18.5 72h45.5t74 -0.5t73.5 -0.5h44q3 -14 11.5 -52.5t20 -91t25.5 -115.5t28 -127.5t27.5 -126t24 -111t17.5 -83t8 -41.5h-179zM216 265q25 -1 51 -1.5t50 -1.5
q-7 35 -14 69t-13.5 64.5t-12.5 56l-10 42.5q-4 -18 -9.5 -43.5t-12.5 -56t-14.5 -63.5t-14.5 -66z" />
    <glyph glyph-name="Egrave" unicode="&#xc8;" horiz-adv-x="443" 
d="M413 530q-10 0 -34.5 0.5t-56.5 1t-69.5 1.5t-73.5 2q-3 -29 -6 -60.5t-6 -64.5q32 2 69.5 3t65.5 4q0 -12 -0.5 -38.5t-1 -56t-2 -55.5t-2.5 -35q-11 2 -28 4t-37.5 3.5l-41 3t-38.5 3.5q-2 -21 -4 -41.5t-4 -40.5q33 2 71 4t75 3.5t69 2t52 -0.5v-173h-45h-73h-87h-86
h-70.5h-40.5h-12q1 20 1.5 71.5t1 118.5t0.5 143v146t-0.5 127t-1.5 87q1 0 25.5 0.5t63 1t86 1t93.5 0.5t85.5 -1t62.5 -3v-162v0zM162 862q8 -6 28 -17.5t42.5 -23.5t41.5 -21.5t25 -11.5q-4 -15 -7.5 -34.5t-4.5 -24.5q-7 1 -26.5 5t-42 9t-43.5 9.5t-31 6.5q3 21 8 49.5
t10 53.5z" />
    <glyph glyph-name="Eacute" unicode="&#xc9;" horiz-adv-x="443" 
d="M413 530q-10 0 -34.5 0.5t-56.5 1t-69.5 1.5t-73.5 2q-3 -29 -6 -60.5t-6 -64.5q32 2 69.5 3t65.5 4q0 -12 -0.5 -38.5t-1 -56t-2 -55.5t-2.5 -35q-11 2 -28 4t-37.5 3.5l-41 3t-38.5 3.5q-2 -21 -4 -41.5t-4 -40.5q33 2 71 4t75 3.5t69 2t52 -0.5v-173h-45h-73h-87h-86
h-70.5h-40.5h-12q1 20 1.5 71.5t1 118.5t0.5 143v146t-0.5 127t-1.5 87q1 0 25.5 0.5t63 1t86 1t93.5 0.5t85.5 -1t62.5 -3v-162v0zM281 862q5 -25 10 -53.5t8 -49.5q-10 -2 -31 -6.5t-43.5 -9.5t-42 -9t-26.5 -5q-1 5 -4.5 24.5t-7.5 34.5q6 2 25 11.5t41.5 21.5t42.5 23.5
t28 17.5z" />
    <glyph glyph-name="Ecircumflex" unicode="&#xca;" horiz-adv-x="443" 
d="M413 530q-10 0 -34.5 0.5t-56.5 1t-69.5 1.5t-73.5 2q-3 -29 -6 -60.5t-6 -64.5q32 2 69.5 3t65.5 4q0 -12 -0.5 -38.5t-1 -56t-2 -55.5t-2.5 -35q-11 2 -28 4t-37.5 3.5l-41 3t-38.5 3.5q-2 -21 -4 -41.5t-4 -40.5q33 2 71 4t75 3.5t69 2t52 -0.5v-173h-45h-73h-87h-86
h-70.5h-40.5h-12q1 20 1.5 71.5t1 118.5t0.5 143v146t-0.5 127t-1.5 87q1 0 25.5 0.5t63 1t86 1t93.5 0.5t85.5 -1t62.5 -3v-162v0zM317 777q-10 -12 -21 -28.5t-14 -20.5q-6 4 -23 16.5t-37 26.5q-20 -14 -37.5 -26.5t-22.5 -16.5q-3 4 -14.5 20.5t-21.5 28.5
q5 4 18.5 20.5t29 36.5t29 38.5t18.5 27.5l1 -1v1q5 -9 18.5 -27.5t29 -38.5t29 -36.5t18.5 -20.5z" />
    <glyph glyph-name="Edieresis" unicode="&#xcb;" horiz-adv-x="443" 
d="M413 530q-10 0 -34.5 0.5t-56.5 1t-69.5 1.5t-73.5 2q-3 -29 -6 -60.5t-6 -64.5q32 2 69.5 3t65.5 4q0 -12 -0.5 -38.5t-1 -56t-2 -55.5t-2.5 -35q-11 2 -28 4t-37.5 3.5l-41 3t-38.5 3.5q-2 -21 -4 -41.5t-4 -40.5q33 2 71 4t75 3.5t69 2t52 -0.5v-173h-45h-73h-87h-86
h-70.5h-40.5h-12q1 20 1.5 71.5t1 118.5t0.5 143v146t-0.5 127t-1.5 87q1 0 25.5 0.5t63 1t86 1t93.5 0.5t85.5 -1t62.5 -3v-162v0zM105 854q5 -1 19 -1t31 -0.5t33.5 -0.5t26.5 -1q1 -9 1 -24v-32t-0.5 -34t-0.5 -31q-8 -1 -22 -1t-29 0.5t-28 1t-19 2.5q0 9 -1.5 24
t-3.5 32l-4 34t-3 31zM229 847q10 1 26 1t33 0.5t31 0.5t19 1q-1 -14 -2.5 -31t-3.5 -34t-3.5 -32t-1.5 -24q-6 -2 -19.5 -3t-28.5 -1.5t-29 0t-22 1.5q0 14 -0.5 31t-0.5 34t0.5 32t1.5 24z" />
    <glyph glyph-name="Igrave" unicode="&#xcc;" horiz-adv-x="214" 
d="M5 0q1 20 1 71t-0.5 117.5t-1 142.5t-1.5 146t-1.5 127t-1.5 86h178q-1 -16 -3.5 -66.5t-5.5 -118.5t-7 -146t-7.5 -149t-6.5 -128t-4 -82h-139zM26 862q8 -6 28 -17.5t42.5 -23.5t41.5 -21.5t25 -11.5q-4 -15 -7.5 -34.5t-4.5 -24.5q-7 1 -26.5 5t-42 9t-43.5 9.5
t-31 6.5q3 21 8 49.5t10 53.5z" />
    <glyph glyph-name="Iacute" unicode="&#xcd;" horiz-adv-x="214" 
d="M5 0h139q1 19 3 56t4.5 85.5t5 104.5t5.5 113t5.5 111.5t4.5 99.5t3.5 77t2.5 44h-178q1 -29 1.5 -86t1.5 -127t1.5 -146t1 -143t0.5 -118t-1 -71zM146 862q5 -25 10 -53.5t8 -49.5q-10 -2 -31 -6.5t-43.5 -9.5t-42 -9t-26.5 -5q-1 5 -4.5 24.5t-7.5 34.5q6 2 25 11.5
t41.5 21.5t42.5 23.5t28 17.5z" />
    <glyph glyph-name="Icircumflex" unicode="&#xce;" horiz-adv-x="214" 
d="M5 0q1 20 1 71t-0.5 118t-1 143t-1.5 146t-1.5 127t-1.5 86h178q-1 -12 -2.5 -44t-3.5 -77t-4.5 -99.5t-5.5 -111.5t-5.5 -113t-5 -104.5t-4.5 -85.5t-3 -56h-139zM182 777q-10 -12 -21 -28.5t-14 -20.5q-6 4 -23 16.5t-37 26.5q-20 -14 -37.5 -26.5t-22.5 -16.5
q-3 4 -14.5 20.5t-21.5 28.5q5 4 18.5 20.5t29 36.5t29 38.5t18.5 27.5l1 -1v1q5 -9 18.5 -27.5t29 -38.5t29 -36.5t18.5 -20.5z" />
    <glyph glyph-name="Idieresis" unicode="&#xcf;" horiz-adv-x="214" 
d="M5 0q1 20 1 71t-0.5 117.5t-1 142.5t-1.5 146t-1.5 127t-1.5 86h178q-1 -16 -3.5 -66.5t-5.5 -118.5t-7 -146t-7.5 -149t-6.5 -128t-4 -82h-139zM-29 854q5 -1 19 -1t31 -0.5t33.5 -0.5t26.5 -1q1 -9 1 -24v-32t-0.5 -34t-0.5 -31q-8 -1 -22 -1t-29 0.5t-28 1t-19 2.5
q0 9 -1.5 24t-3.5 32l-4 34t-3 31zM95 847q10 1 26 1t33 0.5t31 0.5t19 1q-1 -14 -2.5 -31t-3.5 -34t-3.5 -32t-1.5 -24q-6 -2 -19.5 -3t-28.5 -1.5t-29 0t-22 1.5q0 14 -0.5 31t-0.5 34t0.5 32t1.5 24z" />
    <glyph glyph-name="Ntilde" unicode="&#xd1;" horiz-adv-x="555" 
d="M338 695q20 1 48 1h57t54.5 -0.5t40.5 -0.5q-2 -24 -7 -79.5t-10.5 -126.5t-12 -149t-11.5 -147t-9 -121.5t-5 -71.5h-138l-9.5 23.5t-24.5 59t-32.5 78t-33.5 81.5t-28 68t-15 38q-2 -37 -5 -91t-6.5 -106.5t-6 -94.5t-3.5 -55h-181q2 49 5.5 113.5t7.5 134t7.5 139.5
t7 129.5t5.5 104t3 63.5q16 -1 41 -1.5t51.5 -1.5t51 -1.5t39.5 -0.5q3 -9 14.5 -37.5t28.5 -69.5t37.5 -90t41.5 -98q0 54 -0.5 104.5t-0.5 92.5t-0.5 71.5t-1.5 41.5zM365 841q4 -7 8.5 -18t9 -22.5t8.5 -21t7 -13.5q-18 -16 -36.5 -25t-35 -12t-30 0t-21.5 11t-19.5 13
t-24 5t-24 -4.5t-18.5 -14.5q-3 5 -6.5 14.5t-8 20l-9 21t-9.5 18.5q9 18 26 27.5t35.5 11.5t36 -2.5t29.5 -13.5q20 -15 40 -16.5t42 21.5z" />
    <glyph glyph-name="Ograve" unicode="&#xd2;" horiz-adv-x="547" 
d="M260 695q72 -1 121.5 -28.5t80 -74.5t44.5 -110t14 -135t-18 -135.5t-52 -111.5t-82 -75t-108 -25q-67 2 -116 30t-81 74.5t-47.5 108.5t-15.5 134t16.5 136t49 111.5t81 74.5t113.5 26zM260 150q23 -1 42 13.5t32 40t20 59.5t7 73q0 38 -5.5 71.5t-17.5 59t-31 40
t-47 15.5q-25 0 -44 -14.5t-31.5 -40t-19 -59.5t-6.5 -72q0 -39 6 -72.5t18.5 -58t31.5 -39.5t45 -16zM214 862q8 -6 28 -17.5t42.5 -23.5t41.5 -21.5t25 -11.5q-4 -15 -7.5 -34.5t-4.5 -24.5q-7 1 -26.5 5t-42 9t-43.5 9.5t-31 6.5q3 21 8 49.5t10 53.5z" />
    <glyph glyph-name="Oacute" unicode="&#xd3;" horiz-adv-x="547" 
d="M260 695q72 -1 121.5 -28.5t80 -74.5t44.5 -110t14 -135t-18 -135.5t-52 -111.5t-82 -75t-108 -25q-67 2 -116 30t-81 74.5t-47.5 108.5t-15.5 134t16.5 136t49 111.5t81 74.5t113.5 26zM260 150q23 -1 42 13.5t32 40t20 59.5t7 73q0 38 -5.5 71.5t-17.5 59t-31 40
t-47 15.5q-25 0 -44 -14.5t-31.5 -40t-19 -59.5t-6.5 -72q0 -39 6 -72.5t18.5 -58t31.5 -39.5t45 -16zM333 862q5 -25 10 -53.5t8 -49.5q-10 -2 -31 -6.5t-43.5 -9.5t-42 -9t-26.5 -5q-1 5 -4.5 24.5t-7.5 34.5q6 2 25 11.5t41.5 21.5t42.5 23.5t28 17.5z" />
    <glyph glyph-name="Ocircumflex" unicode="&#xd4;" horiz-adv-x="547" 
d="M260 695q72 -1 121.5 -28.5t80 -74.5t44.5 -110t14 -135t-18 -135.5t-52 -111.5t-82 -75t-108 -25q-67 2 -116 30t-81 74.5t-47.5 108.5t-15.5 134t16.5 136t49 111.5t81 74.5t113.5 26zM260 150q23 -1 42 13.5t32 40t20 59.5t7 73q0 38 -5.5 71.5t-17.5 59t-31 40
t-47 15.5q-25 0 -44 -14.5t-31.5 -40t-19 -59.5t-6.5 -72q0 -39 6 -72.5t18.5 -58t31.5 -39.5t45 -16zM369 777q-10 -12 -21 -28.5t-14 -20.5q-6 4 -23 16.5t-37 26.5q-20 -14 -37.5 -26.5t-22.5 -16.5q-3 4 -14.5 20.5t-21.5 28.5q5 4 18.5 20.5t29 36.5t29 38.5t18.5 27.5
l1 -1v1q5 -9 18.5 -27.5t29 -38.5t29 -36.5t18.5 -20.5z" />
    <glyph glyph-name="Otilde" unicode="&#xd5;" horiz-adv-x="547" 
d="M260 695q72 -1 121.5 -28.5t80 -74.5t44.5 -110t14 -135t-18 -135.5t-52 -111.5t-82 -75t-108 -25q-67 2 -116 30t-81 74.5t-47.5 108.5t-15.5 134t16.5 136t49 111.5t81 74.5t113.5 26zM260 150q23 -1 42 13.5t32 40t20 59.5t7 73q0 38 -5.5 71.5t-17.5 59t-31 40
t-47 15.5q-25 0 -44 -14.5t-31.5 -40t-19 -59.5t-6.5 -72q0 -39 6 -72.5t18.5 -58t31.5 -39.5t45 -16zM361 841q4 -7 8.5 -18t9 -22.5t8.5 -21t7 -13.5q-18 -16 -36.5 -25t-35 -12t-30 0t-21.5 11t-19.5 13t-24 5t-24 -4.5t-18.5 -14.5q-3 5 -6.5 14.5t-8 20l-9 21
t-9.5 18.5q9 18 26 27.5t35.5 11.5t36 -2.5t29.5 -13.5q20 -15 40 -16.5t42 21.5z" />
    <glyph glyph-name="Odieresis" unicode="&#xd6;" horiz-adv-x="547" 
d="M260 695q72 -1 121.5 -28.5t80 -74.5t44.5 -110t14 -135t-18 -135.5t-52 -111.5t-82 -75t-108 -25q-67 2 -116 30t-81 74.5t-47.5 108.5t-15.5 134t16.5 136t49 111.5t81 74.5t113.5 26zM260 150q23 -1 42 13.5t32 40t20 59.5t7 73q0 38 -5.5 71.5t-17.5 59t-31 40
t-47 15.5q-25 0 -44 -14.5t-31.5 -40t-19 -59.5t-6.5 -72q0 -39 6 -72.5t18.5 -58t31.5 -39.5t45 -16zM157 854q5 -1 19 -1t31 -0.5t33.5 -0.5t26.5 -1q1 -9 1 -24v-32t-0.5 -34t-0.5 -31q-8 -1 -22 -1t-29 0.5t-28 1t-19 2.5q0 9 -1.5 24t-3.5 32l-4 34t-3 31zM281 847
q10 1 26 1t33 0.5t31 0.5t19 1q-1 -14 -2.5 -31t-3.5 -34t-3.5 -32t-1.5 -24q-6 -2 -19.5 -3t-28.5 -1.5t-29 0t-22 1.5q0 14 -0.5 31t-0.5 34t0.5 32t1.5 24z" />
    <glyph glyph-name="Ugrave" unicode="&#xd9;" horiz-adv-x="530" 
d="M459 681q32 -185 26 -314t-40 -211t-89 -119t-121 -37q-68 0 -118.5 31t-79.5 109.5t-35.5 213.5t14.5 343h171q0 -2 -2.5 -26t-6 -62.5t-6.5 -87.5t-4 -99.5t2 -99t11 -86t22.5 -60.5t37.5 -23t37 22.5t22 59t10 83t1 95.5t-4.5 96t-7 84.5t-6.5 61t-3 25.5h40h46.5
t45.5 0.5t37 0.5zM205 862q8 -6 28 -17.5t42.5 -23.5t41.5 -21.5t25 -11.5q-4 -15 -7.5 -34.5t-4.5 -24.5q-7 1 -26.5 5t-42 9t-43.5 9.5t-31 6.5q3 21 8 49.5t10 53.5z" />
    <glyph glyph-name="Uacute" unicode="&#xda;" horiz-adv-x="530" 
d="M459 681q32 -185 26 -314t-40 -211t-89 -119t-121 -37q-68 0 -118.5 31t-79.5 109.5t-35.5 213.5t14.5 343h171q0 -2 -2.5 -26t-6 -62.5t-6.5 -87.5t-4 -99.5t2 -99t11 -86t22.5 -60.5t37.5 -23t37 22.5t22 59t10 83t1 95.5t-4.5 96t-7 84.5t-6.5 61t-3 25.5h40h46.5
t45.5 0.5t37 0.5zM324 862q5 -25 10 -53.5t8 -49.5q-10 -2 -31 -6.5t-43.5 -9.5t-42 -9t-26.5 -5q-1 5 -4.5 24.5t-7.5 34.5q6 2 25 11.5t41.5 21.5t42.5 23.5t28 17.5z" />
    <glyph glyph-name="Ucircumflex" unicode="&#xdb;" horiz-adv-x="530" 
d="M459 681q32 -185 26 -314t-40 -211t-89 -119t-121 -37q-68 0 -118.5 31t-79.5 109.5t-35.5 213.5t14.5 343h171q0 -2 -2.5 -26t-6 -62.5t-6.5 -87.5t-4 -99.5t2 -99t11 -86t22.5 -60.5t37.5 -23t37 22.5t22 59t10 83t1 95.5t-4.5 96t-7 84.5t-6.5 61t-3 25.5h40h46.5
t45.5 0.5t37 0.5zM360 777q-10 -12 -21 -28.5t-14 -20.5q-6 4 -23 16.5t-37 26.5q-20 -14 -37.5 -26.5t-22.5 -16.5q-3 4 -14.5 20.5t-21.5 28.5q5 4 18.5 20.5t29 36.5t29 38.5t18.5 27.5l1 -1v1q5 -9 18.5 -27.5t29 -38.5t29 -36.5t18.5 -20.5z" />
    <glyph glyph-name="Udieresis" unicode="&#xdc;" horiz-adv-x="530" 
d="M459 681q32 -185 26 -314t-40 -211t-89 -119t-121 -37q-68 0 -118.5 31t-79.5 109.5t-35.5 213.5t14.5 343h171q0 -2 -2.5 -26t-6 -62.5t-6.5 -87.5t-4 -99.5t2 -99t11 -86t22.5 -60.5t37.5 -23t37 22.5t22 59t10 83t1 95.5t-4.5 96t-7 84.5t-6.5 61t-3 25.5h40h46.5
t45.5 0.5t37 0.5zM148 854q5 -1 19 -1t31 -0.5t33.5 -0.5t26.5 -1q1 -9 1 -24v-32t-0.5 -34t-0.5 -31q-8 -1 -22 -1t-29 0.5t-28 1t-19 2.5q0 9 -1.5 24t-3.5 32l-4 34t-3 31zM272 847q10 1 26 1t33 0.5t31 0.5t19 1q-1 -14 -2.5 -31t-3.5 -34t-3.5 -32t-1.5 -24
q-6 -2 -19.5 -3t-28.5 -1.5t-29 0t-22 1.5q0 14 -0.5 31t-0.5 34t0.5 32t1.5 24z" />
    <glyph glyph-name="Yacute" unicode="&#xdd;" horiz-adv-x="520" 
d="M462 696q29 -124 28 -214t-23.5 -152t-61 -98t-83.5 -51q3 -20 6.5 -43.5t6.5 -48t6 -47.5t6 -42q-17 0 -44 0.5t-56 0.5t-55.5 -0.5t-41.5 -0.5q4 38 9.5 83.5t13.5 96.5q-46 14 -84.5 50t-61.5 98t-26.5 153t20.5 216h183q0 -2 -7 -30t-14 -69t-11.5 -88.5t0.5 -88.5
t22 -68t54 -28q38 -1 55 26t20 67.5t-4.5 88t-17 89t-18 70.5t-8.5 31q18 0 43 -0.5t51 -0.5h51h42zM319 862q5 -25 10 -53.5t8 -49.5q-10 -2 -31 -6.5t-43.5 -9.5t-42 -9t-26.5 -5q-1 5 -4.5 24.5t-7.5 34.5q6 2 25 11.5t41.5 21.5t42.5 23.5t28 17.5z" />
    <glyph glyph-name="Ydieresis" unicode="&#x178;" horiz-adv-x="520" 
d="M462 696q29 -124 28 -214t-23.5 -152t-61 -98t-83.5 -51q3 -20 6.5 -43.5t6.5 -48t6 -47.5t6 -42q-17 0 -44 0.5t-56 0.5t-55.5 -0.5t-41.5 -0.5q4 38 9.5 83.5t13.5 96.5q-46 14 -84.5 50t-61.5 98t-26.5 153t20.5 216h183q0 -2 -7 -30t-14 -69t-11.5 -88.5t0.5 -88.5
t22 -68t54 -28q38 -1 55 26t20 67.5t-4.5 88t-17 89t-18 70.5t-8.5 31q18 0 43 -0.5t51 -0.5h51h42zM143 854q5 -1 19 -1t31 -0.5t33.5 -0.5t26.5 -1q1 -9 1 -24v-32t-0.5 -34t-0.5 -31q-8 -1 -22 -1t-29 0.5t-28 1t-19 2.5q0 9 -1.5 24t-3.5 32l-4 34t-3 31zM267 847
q10 1 26 1t33 0.5t31 0.5t19 1q-1 -14 -2.5 -31t-3.5 -34t-3.5 -32t-1.5 -24q-6 -2 -19.5 -3t-28.5 -1.5t-29 0t-22 1.5q0 14 -0.5 31t-0.5 34t0.5 32t1.5 24z" />
    <glyph glyph-name="Ccedilla" unicode="&#xc7;" horiz-adv-x="557" 
d="M255 0q-5 -17 -6 -30q12 -4 22.5 -13t18 -22.5t10 -31t-2.5 -38.5q-8 -31 -30 -47t-49 -18.5t-54.5 9t-45.5 34.5q8 23 17 37t23 28q6 -11 17 -19.5t22.5 -12t21 -0.5t12.5 17q3 13 -4.5 25.5t-19 21.5t-25.5 12.5t-25 0.5q2 13 5 28t6 31q-64 18 -102 59t-54 95.5
t-12 117.5t24 125t54 118.5t77 97.5t94 62t105 13q57 -9 91 -37.5t52 -64.5t22.5 -74t3.5 -65q-18 0 -40 -1t-45 -2t-45.5 -2t-41.5 -1q-2 48 -21 63t-44.5 0t-52.5 -59.5t-44 -115.5q-13 -53 -9 -92.5t17.5 -63t33.5 -30.5t41 3t39.5 38t28.5 75q18 1 41.5 1h48.5t50 -0.5
t46 -0.5q-2 -23 -10 -52t-23 -59.5t-37.5 -59.5t-51.5 -51.5t-66 -36t-82 -12.5h-1z" />
    <glyph glyph-name="a" unicode="a" horiz-adv-x="410" 
d="M179 506q58 5 95 -12.5t58.5 -52.5t30 -84t10 -107t-1 -122t-2.5 -128h-133q-1 4 -1 10v14q-36 -23 -78 -28.5t-78.5 8t-62 48t-28.5 92.5q-2 59 24.5 91.5t66.5 42.5t85.5 1t81.5 -32q0 13 0.5 24t-0.5 19q-1 34 -16.5 53t-33.5 21.5t-31.5 -13.5t-9.5 -53
q-9 0 -26.5 -0.5t-36.5 -1t-37 -1t-30 -0.5q-2 28 4.5 63t24.5 66.5t48 54.5t77 27zM228 110q7 9 7 18t-5 15q-11 13 -32 21t-41 7t-35 -12.5t-13 -35.5q1 -20 16 -30t34.5 -11.5t39 6t29.5 22.5z" />
    <glyph glyph-name="copyright" unicode="&#xa9;" horiz-adv-x="772" 
d="M640 168q-11 5 -21 -3q0 11 10 16t18 -1q-4 1 -10 -0.5t-8 -4.5q7 2 11 -7zM529 216q-8 8 -8 18.5t7 18.5q-3 2 -4.5 9t3.5 8q17 2 34 0t23 -15q-2 0 -8 2l3 -3q6 -9 5 -20t-11 -19q9 0 16 7q-2 -7 -12 -11q-11 -5 -24.5 -5t-23.5 10zM538 255q-8 -6 -11 -15.5t5 -18.5
q10 -12 21.5 -10.5t18.5 9.5t7 19t-14 19q-14 1 -27 -3zM518 185l-5.5 -5.5t-8.5 -3.5q-8 -1 -10.5 3.5t-4.5 4.5q-4 0 -7.5 -3t-8.5 -1q-6 3 -4.5 10.5t2.5 7.5q1 -5 0.5 -8.5t3.5 -6.5q5 -1 7.5 2t9.5 3q3 -11 12 -8.5t13 10.5q2 -2 5.5 -3t6.5 2t0 11q8 -5 3 -13
q-3 -3 -7.5 -3.5t-6.5 1.5zM507 209q-8 11 -9 30.5t-2 37.5v6t1 4q1 -7 1 -14.5t1 -15.5q1 -14 2.5 -25.5t5.5 -22.5zM463 251q8 -8 6.5 -21t-9.5 -21q-8 -9 -22 -15t-25 -4q8 2 15 4t12 7q-15 -2 -26 7t-7 26q5 16 23 23q-8 0 -15.5 -1t-13.5 -1q4 8 19 12.5t27 4.5
q4 -1 9.5 -2.5t7.5 -3.5t1.5 -7.5t-2.5 -7.5zM435 205q10 0 17.5 5.5t10.5 13t1.5 15t-8.5 11.5q-4 2 -5 2q-2 1 -8 1q-9 0 -17 -4.5t-11 -11.5q-6 -15 1.5 -23t18.5 -9zM331 131q-3 7 0.5 12t9.5 6.5t12 -0.5t8 -9q-6 -2 -11.5 -4.5t-5.5 -14.5q-4 6 0 12.5t8 8.5
q-5 7 -13.5 2.5t-7.5 -13.5zM692 302q4 -5 4 -11.5t-2 -13t-5 -12t-6 -8.5q-5 -6 -12.5 -12t-15.5 -11t-18.5 -11.5t-22.5 -12.5q1 -2 1 -6q9 6 18.5 5t17.5 -8q9 -10 9 -22t-6 -21.5t-16 -14t-22 0.5q-3 -12 -11 -22t-19.5 -17.5t-25 -12.5t-25.5 -7q-20 -5 -41.5 -6
t-41.5 0q-28 2 -47 12.5t-30 27.5q-5 -8 -11.5 -12.5t-16.5 -6.5q-18 -3 -26.5 8t-9 25.5t7.5 26.5t24 11q-1 5 -1.5 10t-2.5 10q-16 5 -30.5 11t-27.5 14q-12 10 -11 23q1 8 7 12.5t13 4t12.5 -5.5t6.5 -15q-1 -5 -3.5 -2.5l-6.5 6.5t-9 6t-9 -3q-5 -5 -1 -11t12 -11
q18 -11 42 -18q-2 4 -2 6q8 2 8 8.5t-6 11.5q-5 4 -11.5 6t-8.5 7t1 9t6.5 7.5t6 8t-0.5 9.5t-8 8t-10.5 6t-10 7t-7.5 10q-2 9 2 15.5t10 14.5q7 10 3.5 17t-11.5 12.5t-17.5 10t-14.5 9.5q-16 17 -17 39t8 39q3 6 9.5 12t12.5 13t8 14t-4 13q-4 6 -12 5
q-15 -3 -27.5 -13.5t-26.5 -18.5q-21 -14 -44 -14.5t-43 4.5q-15 5 -32 16.5t-21 31.5q-5 21 1 45t27 41q10 8 21 14t21 11q11 6 23.5 13.5t15.5 27.5v7v4q4 -4 11.5 -15.5t3.5 -21.5q-2 -5 -10 -11t-15 -11q-10 -7 -22 -14.5t-22.5 -16t-16.5 -18.5t-4 -23q1 -9 6.5 -14
t12.5 -6.5t15 -1t14 1.5q20 4 34 15.5t25 25t21 28t22 25.5q11 9 23.5 18t26.5 12q15 4 33 3.5t35 -6.5t31.5 -18t23.5 -32q11 -21 1.5 -42t-26.5 -43q-6 -8 -11 -13.5t-2 -14.5q2 -8 9 -12t12 -5q26 -5 56 11q17 9 36.5 21t36.5 9q9 -2 20.5 -7t22 -13t18.5 -18.5t10 -21.5
q4 -23 -2 -43.5t-6 -39.5q0 -5 3.5 -10t7 -10.5t6.5 -11t3 -10.5q0 -6 -7 -11t-6 -11q1 -5 4 -9t5 -8q2 -7 -5.5 -15t-5.5 -12q5 -9 10.5 -14t0.5 -14q-6 -8 -8 -22q32 18 49 30.5t22 32.5q1 4 0 8t-3 6q-3 2 -6.5 0.5t-5.5 -5.5l-2.5 -7.5t-3.5 -4.5q-5 0 -3.5 8.5
t3.5 11.5q5 10 14 10t14 -7zM602 392q2 11 6.5 26t-0.5 27q-4 11 -13.5 16t-18.5 2t-19 -11.5t-14 -15.5q-20 -29 -36 -58t-18 -58q10 10 22 25t24.5 28.5t24.5 22.5t21 8q12 -2 21 -12zM285 644q-17 -12 -31 -25.5t-23 -29.5q12 10 25.5 20.5t28 17.5t28.5 8.5t28 -6.5
q9 -5 20.5 -16.5t10.5 -38.5q-1 -13 -8 -24.5t-16.5 -22t-20 -21t-17.5 -22.5q-2 -3 -5 -9.5t-3 -11.5q-1 -8 2 -18.5t8 -15.5q3 -4 9.5 -7t11.5 -4q12 -2 27 0t29 4q8 2 18.5 2.5t17.5 -1.5q14 -4 24.5 -14t17 -23.5t11 -29t6.5 -30.5q4 17 11.5 34t16 31.5t15 25t9.5 14.5
q6 10 15 19t19 13.5t19.5 3t17.5 -13.5q-1 8 -2.5 15t-6.5 12q-7 9 -21 17.5t-26 13.5q-21 7 -47 -8q-20 -12 -42.5 -22.5t-45.5 -8.5q-8 1 -18.5 7t-13.5 19q-2 8 5 16t12 14q11 14 21 31.5t8 32.5q-2 17 -12.5 29.5t-24.5 20.5t-29.5 12t-27.5 4q-13 0 -26 -3t-25 -11z
M321 289q0 20 15 39t35 28q7 3 12.5 5t14.5 1q21 -3 41 -8.5t40 -22.5q-3 23 -10.5 44t-27.5 36q-16 12 -33.5 9.5t-36.5 -4.5q-24 -3 -43 0q-14 4 -22 18t-7 28q1 13 9 25t19 23t21.5 22.5t15.5 22.5q8 19 3 35.5t-10 21.5q-11 11 -24 17.5t-27 2.5q-10 -2 -22.5 -9
t-25 -16t-23 -18.5t-16.5 -16.5q-14 -16 -33 -28t-38 -14q-6 -1 -15.5 -1t-14.5 3q-8 5 -12.5 13t-5.5 15q0 16 8.5 27.5t21.5 21t28 18t26 18.5q8 8 10.5 14.5t-7.5 18.5q1 -14 -7.5 -23.5t-22 -17t-28.5 -15.5t-27 -19q-21 -20 -23 -46q-2 -16 2 -33t21 -28q22 -14 52 -16
t54 13q8 4 18 11.5t20.5 13.5t20 7.5t16.5 -5.5q7 -8 6.5 -15.5t-5.5 -14.5t-11.5 -13.5t-10.5 -12.5q-9 -14 -9.5 -36t16.5 -39q4 -4 11.5 -8t15 -8.5t13 -10.5t5.5 -15q0 -5 -3 -9.5t-7 -9t-6.5 -9t-1.5 -9.5q2 -8 10.5 -13t14.5 -8zM342 200q6 -2 11.5 -3t11.5 -3
q1 24 7 47.5t21 45.5q-17 17 -18 36t10 34q-23 -5 -39.5 -23t-20.5 -36q-2 -7 0.5 -10.5t5.5 -8.5q5 -8 2 -14.5t-8 -11.5t-5 -7.5t3 -4.5t7.5 -4t7.5 -5q13 -11 6 -24q-1 -3 -4 -3q2 -4 2 -5zM364 185q-5 1 -9 2t-9 2q2 -7 3 -14t3 -14q4 -6 12 -6v30zM593 119q5 5 11 13
t6 18q0 5 -2 10l-4 10q-2 8 -3 11l-2 10l-2 10q-16 -9 -32 -16.5t-30 -14.5q-6 -3 -8 -0.5t4 6.5l32 16t33 17q0 6 -0.5 11.5t-1.5 11.5v9.5t-1 9.5q0 4 -0.5 9t-1.5 10q0 5 -1 10t-3 10q-3 8 -9.5 12.5t-11.5 9.5q7 4 9 10.5t0.5 14t-5 15.5t-6.5 15q-14 -8 -26 -16.5
t-26 -19.5q-5 -4 -10.5 -8t-8.5 -7q-5 -3 -11 3q-12 15 -32 23.5t-36 12.5q-14 3 -19 1.5t-10 -10.5q-7 -14 -2 -29t16 -30q-16 -21 -21 -45t-7 -50q3 -1 5.5 -1t5.5 -1q20 -5 48 -8.5t54 -8.5q8 -2 8.5 -4.5t-5.5 -3.5q-28 4 -57.5 8t-58.5 10q0 -2 -0.5 -4t-0.5 -4
q0 -5 0.5 -15t-2.5 -12t-10.5 1.5t-9.5 6.5t-3 9q-9 0 -14.5 -4.5t-8 -12t-2 -15.5t4.5 -14q5 -8 15 -9.5t17 3.5q4 2 8.5 6.5t8.5 11.5q1 2 3 -2.5t4 -6.5q12 -14 29 -22.5t41 -10.5q39 -3 77.5 3.5t64.5 26.5zM617 199q1 -3 2.5 -6t0.5 -5q-2 -3 -6 -4.5t-7 -3.5
q1 -8 4 -14t4 -13q11 -6 20.5 -1.5t14 13t3.5 18.5t-10 16q-15 6 -26 0zM615 192q-5 7 -6 15q-4 -2 -6 -4l3 -17q2 2 4.5 3t4.5 3zM611 234q2 4 4 7t2 6q2 7 -2.5 9.5t-7.5 7.5q-4 6 -1 11t8 12q5 8 -1 13t-6 13q-1 7 6 12.5t7 11.5q-2 8 -9 16.5t-10 17.5q-1 4 0 8t0 7
q-2 8 -11 11.5t-15 2.5q-8 -1 -18 -9.5t-20.5 -20t-20 -23.5t-15.5 -19q12 11 22.5 19.5t23.5 16.5q8 5 17 10.5t14 0.5q-1 -1 -3 -2q-4 -2 -4 -4q8 -14 10 -29t-6 -28q19 -15 20.5 -34t3.5 -37q1 -8 1.5 -15t1.5 -14q4 2 6 4q0 9 3 18zM447 234q7 0 5 -7q0 -7 -6 -5
q-6 0 -6 6t7 6zM452 230q0 -2 -2 -2t-2 2t2 2t2 -2zM555 227q-6 0 -6 7q2 7 7 5q6 0 6 -6q-2 -6 -7 -6zM558 238q-2 0 -2 -2t2 -2t2 2t-2 2zM525 162q1 -3 -3 -2.5t-9 -0.5q-5 -2 -8 -3.5t-4 0.5q0 7 11 9q11 4 13 -3zM515 156q10 3 13 0q0 -2 -3.5 -1.5t-8.5 -1.5
q-12 -2 -12 -3q-2 4 11 6zM381 76q2 0 2 -1q1 -1 1 -3v-34q0 -3 -1 -3q-1 -1 -2 -1q-2 0 -3 1t-1 3v1l-3 -3q-1 -1 -1.5 -1t-1.5 -1h-4q-4 0 -5 1q-2 1 -4 3q-1 2 -1.5 2.5t-1.5 2.5q0 2 -0.5 3t-0.5 3q0 6 4 12q4 4 9 4q2 0 6 -2q1 0 4 -3v11q0 3 1 4t3 1zM376 44
q0 1 0.5 2t0.5 3t-0.5 3t-0.5 2q-1 2 -3 4q-1 1 -4 1q-2 0 -4 -1q-2 -2 -2 -4q-1 -1 -1 -5t1 -5q1 -3 3 -3q1 -1 3 -1q3 0 4 1q1 0 3 3zM416 46q2 0 2 -1q1 0 1 -2t-1 -3q0 -1 -2 -3q-4 -2 -5 -2q-2 -1 -6 -1q-7 0 -11 4q-4 6 -4 11q0 4 2 8q1 2 2 3l3 3q2 1 4 1.5t5 0.5
q2 0 2.5 -0.5t2.5 -0.5l4 -2l3 -3q0 -1 0.5 -1.5t0.5 -1.5t-0.5 -1.5t-0.5 -1.5q-1 0 -1.5 -0.5t-1.5 -0.5l-1 1l-2 2l-3 3q-1 0 -1.5 0.5t-2.5 0.5q-4 0 -5 -3q-2 -4 -2 -7v-4q1 -1 1 -1.5t1 -1.5l2 -2q1 0 1.5 -0.5t2.5 -0.5q1 0 1.5 0.5t1.5 0.5q3 1 3 4l2 2h2zM450 60
q1 -1 3 -5q1 -2 1 -6t-1 -6q-2 -4 -3 -5q-3 -3 -5 -3q-2 -1 -6 -1t-6 1q-4 2 -5 3t-3 5q-1 2 -1 6q0 5 1 6q2 4 3 5q1 3 5 3q4 2 6 2t6 -2q3 0 5 -3zM445 42q2 4 2 7q0 5 -2 7q-3 3 -6 3t-4 -1q-2 -2 -3 -4v-5v-5q1 -2 3 -4q1 0 1.5 -0.5t2.5 -0.5q3 0 6 3zM481 40l2 -2v-1
q0 -2 -1 -2q-1 -1 -2 -1h-3q0 1 -2 3l-5 8l-6 -8q-1 -1 -1 -1.5t-1 -1.5h-2q-2 0 -3 1l-1 2q1 0 1 1t1 2l7 10l-6 8q-2 2 -2 4l1 2q1 0 1.5 0.5t1.5 0.5l2 -1q0 1 2 -3l5 -6l5 6q0 1 2 3l2 1q1 0 2 -1t1 -2v-2q0 -1 -0.5 -1t-0.5 -1l-6 -8zM512 64q1 0 1 -0.5t1 -0.5v-2v-1
q-1 -1 -1 -2l-10 -26l-1.5 -3t-0.5 -3q-2 -2 -4 -3q-1 0 -2 -0.5t-3 -0.5t-3 0.5t-2 0.5q-2 2 -2 3t1 2h2h1h2q1 0 2 1l1 1t2 3v1l-9 24q-1 1 -1 3q0 1 1 2l1 1l2 1q1 0 2 -1t1 -1.5t1 -1.5l6 -19l6 17l2 4l1 1l2 1zM519 42q3 0 3 -1q2 -2 2 -3t-2 -3q0 -1 -3 -1q-2 0 -3 1
q0 1 -0.5 1.5t-0.5 1.5t0.5 1.5t0.5 1.5q1 1 3 1zM556 46q2 0 3 -1l1 -2q0 -1 -0.5 -1.5t-0.5 -1.5l-3 -3q-2 -2 -4 -2q-2 -1 -6 -1q-8 0 -11 4q-4 4 -4 11q0 6 2 8q1 2 2 3l3 3q4 2 8 2q2 0 3 -0.5t2 -0.5q4 -2 5 -2q2 -2 2 -3q1 -1 1 -3t-1 -3l-2 -1q-1 0 -1 0.5t-1 0.5
l-1 2l-3 3q-1 0 -1.5 0.5t-2.5 0.5q-4 0 -5 -3q-3 -3 -3 -7q0 -1 0.5 -2t0.5 -2t2 -3q0 -2 2 -2q1 0 1.5 -0.5t1.5 -0.5q2 0 2.5 0.5t1.5 0.5q2 2 3 4q0 1 0.5 1t0.5 1h2zM591 60q1 -1 3 -5q0 -2 0.5 -3t0.5 -3t-0.5 -3t-0.5 -3q-2 -4 -3 -5q-2 -1 -2.5 -2t-2.5 -1
q-2 -1 -6 -1q-5 0 -7 1t-4 3q-2 1 -4 5q0 2 -0.5 3t-0.5 3t0.5 3.5t0.5 2.5q2 4 4 5q1 3 4 3q4 2 7 2q2 0 6 -2q2 0 5 -3zM585 42q2 4 2 7q0 5 -2 7q-2 3 -5 3t-4 -1t-3 -4q-1 -1 -1 -5t1 -5q2 -3 3 -4q1 0 1.5 -0.5t2.5 -0.5q3 0 5 3zM639 63q2 -1 4 -3q1 -2 1 -7v-15
q0 -1 -0.5 -1.5t-0.5 -1.5q-1 -1 -3 -1t-3 1t-1 3v13v4q0 1 -0.5 1.5t-0.5 1.5q-1 0 -1.5 0.5t-1.5 0.5t-1.5 -0.5t-1.5 -0.5q-2 -2 -2 -3q-1 -1 -1 -6v-11q0 -2 -1 -3t-3 -1t-3 1q0 1 -0.5 1.5t-0.5 1.5v13v4q0 2 -1 3q-1 0 -1.5 0.5t-1.5 0.5q-4 0 -5 -3q0 -2 -0.5 -3.5
t-0.5 -3.5v-11q0 -2 -1 -3t-3 -1t-3 1q0 1 -0.5 1.5t-0.5 1.5v22v2l1 1q2 2 3 2t2 -1q2 -2 2 -3v-1q1 3 4 3q2 2 5 2q1 0 5 -2l3 -3q3 3 4 3q4 2 5 2q3 0 5 -2z" />
    <glyph glyph-name="t" unicode="t" horiz-adv-x="207" 
d="M287 652q-1 -14 -3 -30.5t-5 -33.5t-5.5 -32.5t-5.5 -26.5h-93q-3 -52 -6 -109t-6 -113t-5.5 -108t-5 -93t-3.5 -69.5t-1 -36.5h-137q1 29 0.5 88t-1.5 133t-2 155t-2 153h-51v112q11 0 21 0.5t29 1.5v94h37h50.5h52h41.5q0 -2 -0.5 -13t-1 -25l-1 -28t-0.5 -21h25h30.5
t29 0.5t19.5 1.5z" />
  </font>
</defs>
</svg>
